<svg width="123" height="125" viewBox="0 0 123 125" fill="none" xmlns="http://www.w3.org/2000/svg">
<path d="M73.8305 122.316C58.8952 122.316 43.9599 122.316 29.0234 122.316C28.4671 122.316 28.189 122.028 28.189 121.453C28.189 111.717 28.2162 101.981 28.1642 92.2449C28.1543 90.4597 28.5827 88.8292 29.2326 87.2198C31.1899 82.3656 34.7318 79.0676 39.3942 76.8553C40.8129 76.1818 42.2948 75.6891 43.7631 75.1505C44.1704 75.0007 44.5665 74.8287 44.9033 74.5476C45.4963 74.0537 45.6028 73.4631 45.2091 72.7946C44.9144 72.2932 44.5059 71.8834 44.0961 71.4774C42.6018 69.9992 41.1422 68.4987 39.9401 66.7569C37.3428 62.9933 37.0593 59.0317 38.7851 54.8498C39.7099 52.609 41.0296 50.5997 42.3084 48.5607C44.3041 45.3778 45.5124 41.9337 45.6077 38.1553C45.6411 36.8603 45.5309 35.5617 45.4728 34.2655C45.2846 30.034 45.7464 25.8768 46.972 21.8186C48.4068 17.0684 50.8804 12.9334 54.5498 9.57968C58.4569 6.00804 62.8952 3.36985 68.1641 2.34355C72.0676 1.58341 75.9772 1.62179 79.8917 2.31631C84.3201 3.1012 88.0737 5.20705 91.4696 8.07179C94.7243 10.8189 97.3303 14.0612 99.1848 17.9003C100.76 21.1575 101.669 24.6053 102.102 28.1881C102.498 31.4738 102.396 34.7594 102.183 38.0525C102.016 40.6486 102.621 43.1135 103.632 45.4979C104.626 47.8439 106.135 49.8829 107.441 52.0444C108.886 54.4375 109.871 57.0002 109.959 59.8302C110.062 63.1778 108.803 66.0252 106.565 68.448C105.588 69.5052 104.49 70.4511 103.457 71.4576C103.118 71.7881 102.829 72.167 102.617 72.5928C102.106 73.6129 102.338 74.3731 103.337 74.924C104.117 75.3536 104.968 75.6086 105.808 75.8834C109.225 76.9989 112.316 78.6566 114.806 81.3059C117.289 83.949 118.696 87.1282 119.396 90.6491C119.436 90.8484 119.417 91.0601 119.417 91.2656C119.417 101.373 119.413 111.48 119.432 121.587C119.432 122.179 119.299 122.33 118.696 122.33C103.739 122.311 88.7831 122.315 73.8268 122.315L73.8305 122.316Z" fill="#7E7F80"/>
<path d="M29.9499 43.1098C27.6732 43.0417 25.0969 43.1927 22.5219 42.9847C17.3544 42.5675 12.6265 41.0089 8.68347 37.5412C4.75529 34.086 2.48726 29.7109 1.94997 24.5038C1.34582 18.6617 2.98989 13.472 6.84751 9.04857C10.3152 5.07334 14.7212 2.7657 19.9827 2.25812C26.5578 1.62426 32.182 3.7363 36.7663 8.4729C42.8115 14.7174 44.0594 24.5199 39.7945 32.0903C39.0059 33.4905 38.3287 34.9464 37.5376 36.3441C36.7676 37.7046 37.1031 39.5307 38.8375 40.011C39.2238 40.1187 39.4516 40.3948 39.4701 40.8269C39.5023 41.5363 39.4281 42.2048 38.7608 42.6232C38.2061 42.9711 37.5785 43.1061 36.9298 43.1085C34.7026 43.116 32.4767 43.111 29.9499 43.111V43.1098Z" fill="#7E7F80"/>
<path d="M92.3004 119.841C86.2194 119.623 80.1358 119.777 74.0535 119.763C68.4032 119.751 62.753 119.742 57.1015 119.773C55.4946 119.782 53.8877 119.868 52.2807 119.838C51.6407 119.825 51.0105 119.714 50.3952 119.533C48.5098 118.978 47.6209 117.588 47.2495 115.767C46.9969 114.53 46.9845 113.27 46.8929 112.018C46.6082 108.136 46.2331 104.262 45.8084 100.392C45.5819 98.326 45.1486 96.2796 45.135 94.1923C45.1164 91.5071 46.4052 90.1477 49.0953 90.0128C51.6295 89.8865 54.1637 90.0932 56.6979 90.092C61.2352 90.0895 65.7737 90.1626 70.3085 90.0697C74.9486 89.9744 79.5837 90.1254 84.2212 90.1267C88.7573 90.1292 93.2945 90.2121 97.8256 89.9571C98.9658 89.8927 100.089 89.9076 101.205 90.1304C103.147 90.5167 104.205 91.7497 104.34 93.7181C104.429 95.0304 104.138 96.2957 103.962 97.5795C103.518 100.844 102.999 104.095 102.488 107.35C102.027 110.279 101.659 113.223 101.109 116.138C101.01 116.665 100.903 117.189 100.784 117.712C100.568 118.669 99.9748 119.275 99.0191 119.488C97.5199 119.824 95.9897 119.809 94.4657 119.836C93.7439 119.849 93.0222 119.839 92.3004 119.839V119.841Z" fill="#FBFBFB"/>
<path d="M76.5164 56.4567C77.6318 56.4888 78.7386 56.3886 79.8478 56.2858C81.8856 56.0964 83.2821 55.059 83.7612 53.0806C84.0546 51.8711 84.863 51.2781 85.8088 50.7779C86.4761 50.4251 87.1979 50.1465 87.9518 49.998C88.9088 49.8098 89.6169 50.4461 89.4461 51.4031C89.0784 53.4694 88.1029 55.2248 86.668 56.7513C84.6501 58.898 81.9896 59.7621 79.2647 60.469C74.2001 61.7826 69.2431 61.3307 64.4483 59.3041C60.5969 57.6761 58.397 54.6616 57.3867 50.6467C56.5647 47.3796 56.6043 44.0704 56.6439 40.7538C56.6563 39.6879 56.5424 38.6158 56.8148 37.5548C57.3793 35.3524 58.7238 33.821 60.717 32.7873C62.3821 31.9231 64.1896 31.5146 65.9748 31.0219C71.4826 29.5041 76.2898 26.7136 80.5634 22.9612C83.084 20.7489 85.3099 18.2667 87.3316 15.5963C87.7426 15.0529 88.1858 14.5378 88.6971 14.0835C90.122 12.8158 91.3749 12.8802 92.6575 14.3125C93.5005 15.2534 94.1938 16.3181 94.7868 17.4174C95.9295 19.5357 97.0326 21.6824 97.8435 23.9578C98.1852 24.916 98.382 25.9151 98.2074 26.9352C97.8076 29.2651 95.8119 30.6554 93.4646 30.3088C91.5643 30.0278 89.841 29.233 88.0744 28.5521C86.9948 28.1361 85.9314 27.7003 84.9868 27.0157C84.8704 26.9315 84.7404 26.8659 84.6129 26.799C83.5235 26.2258 82.871 26.3137 82.3399 27.1036C81.6095 28.1893 81.685 29.1612 82.5764 29.9176C83.2437 30.4833 84.041 30.83 84.8184 31.2125C88.0298 32.7885 90.205 35.1989 90.7435 38.8312C91.1756 41.7442 90.2409 44.2772 88.3542 46.487C87.4368 47.5604 86.3721 48.453 85.1688 49.2057C84.3727 49.7033 83.6807 49.7541 82.876 49.2552C80.1759 47.5789 77.2579 47.7609 74.3214 48.375C72.2515 48.807 71.3155 50.6616 71.2672 52.5012C71.1979 55.1865 72.4941 56.2524 75.0914 56.4542C75.5631 56.4913 76.0397 56.4591 76.5139 56.4591L76.5164 56.4567Z" fill="#F8F8F8"/>
<path d="M53.2215 30.1491C51.565 30.154 50.2082 29.2911 49.6746 27.5579C49.3973 26.6592 49.4369 25.7492 49.7241 24.8814C51.2654 20.229 53.2227 15.8105 56.902 12.3813C60.7782 8.76752 65.3762 6.69015 70.5993 5.95849C74.2254 5.45091 77.833 5.65766 81.412 6.35713C82.7639 6.62082 83.9945 7.19897 84.9329 8.27232C86.1895 9.70964 86.3442 11.1668 85.365 12.8133C84.6841 13.9597 83.7543 14.8994 82.7392 15.7474C80.4142 17.6886 78.27 19.839 75.8546 21.6737C70.66 25.618 64.8166 28.099 58.4372 29.3592C56.886 29.6663 55.3657 30.1578 53.2215 30.1491Z" fill="#F8F8F8"/>
<path d="M31.0322 118.242C31.3442 114.363 31.4098 110.478 31.4383 106.588C31.4544 104.371 31.5633 102.149 31.6809 99.9342C31.8023 97.6538 31.6475 95.3622 31.9161 93.093C32.217 90.5501 33.0564 88.183 34.4404 86.0116C36.94 82.0908 40.4225 79.5121 44.9127 78.3211C46.3216 77.9472 47.7601 77.691 49.2346 77.9794C50.095 78.1478 50.6595 78.6578 50.8465 79.491C51.1572 80.8739 51.3776 82.2703 51.0359 83.6916C50.7103 85.0472 49.8523 85.7974 48.5042 86.0574C46.7796 86.3892 45.1034 86.8287 43.6673 87.9354C42.1742 89.0855 41.5342 90.6467 41.3101 92.443C41.0204 94.7568 41.4958 97.0137 41.7608 99.2917C41.9551 100.96 42.2064 102.623 42.3154 104.303C42.4206 105.917 42.6311 107.526 42.7734 109.137C42.8403 109.894 42.8279 110.654 42.9034 111.413C43.1127 113.532 43.0768 115.674 43.5125 117.775C43.7007 118.684 43.0978 119.604 42.1606 119.949C41.0563 120.355 39.9013 120.542 38.7437 120.707C36.6787 121 34.6534 120.693 32.6379 120.271C32.498 120.241 32.3544 120.225 32.212 120.214C31.4593 120.153 31.0483 119.727 31.0335 118.983C31.0285 118.736 31.0335 118.488 31.0335 118.241L31.0322 118.242Z" fill="#7691C4"/>
<path d="M115.954 99.9762C115.954 101.214 115.861 102.46 115.973 103.687C116.194 106.075 116.131 108.48 116.533 110.861C116.792 112.393 116.814 113.964 116.95 115.518C117.002 116.11 117.042 116.707 117.153 117.288C117.37 118.419 116.886 119.297 115.742 119.704C114.011 120.32 112.206 120.666 110.363 120.563C109.076 120.491 107.781 120.409 106.521 120.086C106.265 120.021 105.998 119.996 105.733 119.963C105.141 119.89 104.691 119.453 104.693 118.85C104.7 116.754 104.798 114.659 105.114 112.585C105.511 109.973 105.931 107.363 106.343 104.755C106.578 103.262 106.775 101.756 107.085 100.27C107.33 99.0898 107.392 97.8729 107.535 96.672C107.696 95.3288 107.961 93.9954 108.09 92.6547C108.308 90.3904 107.612 88.1384 104.585 87.1443C103.014 86.6281 101.381 86.4572 99.7679 86.1651C98.9322 86.014 98.1474 85.7256 97.4256 85.2626C96.3052 84.5445 95.8063 83.5083 95.7679 82.2035C95.7295 80.8813 95.9474 79.6247 96.5961 78.4573C97.1384 77.4817 98.0483 77.0806 99.1365 77.3257C100.294 77.5869 101.307 78.2047 102.4 78.6219C104.496 79.4229 106.582 80.2338 108.545 81.343C112.245 83.4328 114.535 86.508 115.344 90.7011C115.937 93.7714 115.966 96.8689 115.952 99.9738L115.954 99.9762Z" fill="#7691C4"/>
<path d="M73.0948 64.5495C74.4975 64.5495 75.9051 64.4703 77.3003 64.5668C79.6476 64.7303 81.5566 65.868 83.2217 67.4749C84.6479 68.8516 85.8871 70.4003 87.2539 71.8302C88.4721 73.1041 89.7807 74.2592 91.4458 74.9277C92.0165 75.1567 92.1663 75.5826 92.0103 76.1261C91.6897 77.239 90.9729 77.9732 89.8475 78.2975C87.0744 79.0961 84.2567 79.6903 81.3994 80.0927C77.8389 80.5953 74.2561 80.7401 70.6671 80.5792C66.3552 80.3861 62.1063 79.7361 57.9318 78.6306C57.3078 78.4659 56.7272 78.2059 56.2382 77.7739C55.3716 77.0088 55.2292 75.9713 55.8507 74.9983C56.2964 74.3 56.9426 73.8259 57.647 73.426C60.9017 71.5752 63.686 69.2106 65.7782 66.071C66.5842 64.8615 67.868 64.5953 69.1964 64.5458C70.4938 64.4975 71.7949 64.5359 73.0936 64.5359C73.0936 64.5408 73.0936 64.5458 73.0936 64.5507L73.0948 64.5495Z" fill="#F8F8F8"/>
<path d="M94.289 43.1024C94.2123 40.8752 94.3324 38.653 94.4487 36.4308C94.5267 34.9588 95.1816 34.289 96.4556 34.2964C97.5388 34.3026 98.1628 34.939 98.1417 36.0532C98.1145 37.4967 98.1355 38.9315 98.3373 40.3676C98.7669 43.423 99.8316 46.2618 101.219 48.9903C102.238 50.9934 103.388 52.921 104.675 54.7656C106.575 57.4904 106.779 60.318 105.37 63.3462C103.725 66.8832 101.108 69.2032 97.3123 70.1292C94.419 70.8349 91.7709 70.1094 89.2875 68.6003C88.5113 68.1286 87.7722 67.6099 87.1371 66.9476C85.9845 65.7455 85.7604 64.3527 86.5255 62.8671C87.0022 61.9411 87.6645 61.15 88.4172 60.4394C90.965 58.0302 92.7155 55.1506 93.6069 51.7535C94.3262 49.0126 94.4042 46.2209 94.3051 43.4119C94.3014 43.3091 94.294 43.2064 94.289 43.1036V43.1024Z" fill="#F8F8F8"/>
<path d="M53.1942 39.3561C53.1942 41.8693 53.1174 44.3849 53.2115 46.8943C53.3761 51.3103 54.66 55.3524 57.5197 58.8126C58.0942 59.5071 58.8258 60.0036 59.5315 60.5371C59.6627 60.6362 59.7964 60.734 59.9277 60.833C62.1994 62.5551 62.4643 64.1212 60.7373 66.4053C58.1375 69.8457 54.608 70.95 50.4928 70.0661C46.1846 69.14 43.2072 66.5984 42.015 62.2617C41.1806 59.2273 41.8466 56.3886 43.4696 53.7455C45.3464 50.6888 47.1502 47.5963 48.3226 44.1819C49.1731 41.7071 49.6114 39.1655 49.6077 36.5459C49.6077 36.2809 49.6374 36.011 49.6906 35.7511C49.8924 34.7594 50.4074 34.3038 51.2629 34.3385C52.2223 34.3781 52.8054 34.9228 52.949 35.9021C53.1174 37.0497 53.0369 38.206 53.1942 39.3586V39.3561Z" fill="#F8F8F8"/>
<path d="M25.0839 39.8167C20.0044 39.6805 16.0081 38.7916 12.4501 36.4171C8.27309 33.6279 5.91717 29.7158 5.39597 24.718C4.91439 20.0915 5.99021 15.8737 8.86362 12.1869C11.529 8.76753 15.0611 6.73225 19.3371 6.0922C25.4566 5.17608 30.6463 7.06403 34.8419 11.579C37.2795 14.2011 38.6884 17.3382 39.0969 20.9161C39.6342 25.6229 37.9864 29.6588 35.269 33.3506C33.8911 35.2237 32.226 36.812 30.234 38.0426C28.3882 39.184 26.4247 39.8959 25.0827 39.8154L25.0839 39.8167Z" fill="#D9D9D9"/>
<path d="M81.4825 104.98C81.4565 108.544 79.6354 110.919 76.2891 111.597C73.7908 112.104 71.4992 111.667 69.6484 109.773C68.5243 108.621 68.013 107.199 67.9016 105.603C67.7766 103.788 68.0341 102.05 69.2374 100.64C71.0474 98.5166 73.3686 97.6327 76.1442 98.2604C78.9743 98.9016 80.835 100.562 81.3711 103.502C81.459 103.985 81.4478 104.486 81.4825 104.979V104.98Z" fill="#7E7F80"/>
<path d="M24.2318 22.367C24.2318 23.808 23.125 24.9099 21.6902 24.9012C20.3172 24.8925 19.1708 23.7523 19.1622 22.3856C19.1523 20.9767 20.2875 19.8316 21.6951 19.8303C23.1374 19.8291 24.233 20.9235 24.2318 22.367Z" fill="#7E7F80"/>
<path d="M14.5671 19.7177C15.971 19.7177 17.1496 20.8777 17.1434 22.2543C17.1372 23.6508 15.9797 24.7811 14.5584 24.7786C13.1892 24.7761 11.997 23.605 12.0119 22.2778C12.028 20.8591 13.1657 19.7189 14.5671 19.7177Z" fill="#7E7F80"/>
<path d="M26.4415 22.3262C26.4539 20.9136 27.5433 19.8341 28.9559 19.8353C30.3598 19.8366 31.5223 20.9991 31.5111 22.3881C31.5 23.7808 30.3326 24.9173 28.9249 24.905C27.4864 24.8938 26.4291 23.7957 26.4415 22.325V22.3262Z" fill="#7E7F80"/>
<path d="M74.5515 109.109C76.7525 109.109 78.5367 107.325 78.5367 105.124C78.5367 102.923 76.7525 101.139 74.5515 101.139C72.3506 101.139 70.5664 102.923 70.5664 105.124C70.5664 107.325 72.3506 109.109 74.5515 109.109Z" fill="#7691C4"/>
</svg>
