<?xml version="1.0" encoding="UTF-8"?><svg id="Layer_1" xmlns="http://www.w3.org/2000/svg" xmlns:xlink="http://www.w3.org/1999/xlink" viewBox="0 0 651.17 88.42"><defs><linearGradient id="linear-gradient" x1="94.62" y1="53.28" x2="74.37" y2="57.47" gradientTransform="matrix(1, 0, 0, 1, 0, 0)" gradientUnits="userSpaceOnUse"><stop offset="0" stop-color="#75c1ec"/><stop offset="1" stop-color="#4e82ce"/></linearGradient><linearGradient id="linear-gradient-2" x1="-771.38" y1="-285.71" x2="-773.96" y2="-272.63" gradientTransform="translate(904.3 -193.65) rotate(-35.45)" gradientUnits="userSpaceOnUse"><stop offset="0" stop-color="#93e4ff"/><stop offset="1" stop-color="#4e82ce"/></linearGradient></defs><g><g><path d="M114.36,79.87c-9.53,0-23.23-1.16-23.4-1.22-1.45-.35-2.82-1.17-4.14-1.97-1.09-.65-2.12-1.27-3.21-1.65-.71-.25-1.27-.46-1.82-.69l-2.29-.92c-1.03-.41-1.92-.78-2.81-1.16-.07-.02-.19-.08-.31-.14-2.06-.89-3.44-1.93-5.04-3.13-.52-.39-1.07-.8-1.67-1.23l-.07-.05-.28-.43c-.8-1.26-1.48-2.48-2.07-3.7-2.73-5.58-4.11-11.94-4.11-18.92,0-.77,.02-1.51,.06-2.26,.29-.61,.31-.99,.34-1.42,.03-.52,.07-1.11,.49-1.72,2.72-3.99,5.99-7.34,9.69-9.98,.38-.27,.78-.54,1.18-.81,4.82-3.15,10.54-5.22,16.53-6,1.75-.22,3.48-.34,5.15-.34h.4c.51,.01,1.31,.04,2.06,.07,0,0-9.1,4.84-13.82,18.71-.8,2.72-1.08,5.34-.83,7.79,.28,2.72,1.33,5.45,3.04,7.87,1.87,2.64,4.42,4.61,6.68,6.19,.61,.43,1.24,.84,1.87,1.22,2.9,1.74,5.8,2.8,8.63,3.14,.75,.09,1.5,.13,2.25,.13,6.1,0,12.01-2.78,16.48-5.2,1.94-1.05,3.92-2.2,6.03-3.5,1.33-.82,2.6-1.6,3.77-2.46l.72-.53,.07,.89c.01,.12,.74,11.97-8.34,17.55-2.98,1.83-5.42,4.73-5.56,5.28,0,.4-.46,.42-.77,.44-1.57,.1-3.17,.14-4.89,.14Z" style="fill:url(#linear-gradient);"/><path d="M114.36,35.96c-.83,0-1.63-.2-2.37-.59-1.07-.56-1.97-1.51-2.53-2.67-.42-.86-.52-1.73-.63-2.57-.05-.41-.1-.83-.19-1.25-.19-.87-.5-1.72-.91-2.52-.35-.68-1.55-2.64-1.81-2.88l-.95-.58,1.1-.3c.99-.3,1.94-.45,2.93-.45,.47,0,.94,.03,1.42,.1,2.02,.29,4.84,.99,6.84,2.75,1.13,1,1.97,2.22,2.42,3.53,.66,1.9,.37,3.79-.8,5.19-1.16,1.4-2.85,2.23-4.52,2.23h0Z" style="fill:url(#linear-gradient-2);"/></g><path d="M85.14,75.58c-.11-.03-2.67-.79-7.22-3.16-.94-.49-1.81-.97-2.76-1.51l-.8-.39c-.89-.45-1.67-.9-2.47-1.38-.05-.02-.16-.09-.26-.16-1.55-.94-2.1-2.02-2.62-3.06-.37-.72-.71-1.41-1.41-2.05l-1.29-2.95c-.59-1.23-1.08-2.42-1.49-3.6,.45-4.8,1.14-6.55,4.05-10.65,7.04-9.88,16.56-18.03,21.7-20.2,0,0-12.74,15.86-13.42,24.75-.8,10.38,4.15,18.82,6.87,21.83,.62,.68,1.1,1.18,1.37,1.44l.23,.22-.48,.85Z" style="fill:#4e82ce;"/></g><polygon points="101.56 26.07 100.44 20.22 92.47 15.72 107.74 10.64 119.61 .73 124.38 0 124.16 4.98 114.03 12.33 105.35 22.64 104.63 26.64 101.56 26.07" style="fill:#3e7ecc;"/><path d="M56.28,84.51L31.25,51.99H7.96v32.53H0V5.01H29.97c20.32,0,30.2,7.57,30.2,23.15,0,5.71-1.93,10.66-5.73,14.69-3.79,4.02-8.81,6.6-14.92,7.66l-.09,.02,26.49,33.99h-9.64ZM30.31,44.59c6.5,0,11.8-1.52,15.74-4.5,3.94-2.99,5.93-7.01,5.93-11.93,0-10.46-7.52-15.76-22.35-15.76H7.96V44.59H30.31Z" style="fill:#3e7ecc;"/><path d="M185.92,85.54c-12.52,0-22.61-3.73-29.99-11.07-7.39-7.34-11.13-17.33-11.13-29.7,0-11.62,3.69-21.42,10.96-29.14,7.27-7.73,17.04-11.65,29.03-11.65,6.62,0,12.63,1.22,17.84,3.64,5,2.32,8.95,5.2,11.72,8.58l.28,.34-4.82,5.05-.36-.34c-3.45-3.22-7.05-5.66-10.71-7.25-3.82-1.67-8.59-2.51-14.19-2.51-9.68,0-17.44,3.11-23.07,9.24-5.64,6.13-8.49,14.22-8.49,24.04s3.09,18.1,9.17,24.15c6.09,6.05,14.2,9.12,24.1,9.12s18.39-3.52,24.76-10.47l.38-.41,4.48,5.15-.25,.33c-2.85,3.75-6.96,6.85-12.22,9.23-5.41,2.45-11.3,3.69-17.49,3.69Z" style="fill:#3e7ecc;"/><polygon points="276.48 84.51 240.17 46.5 230.56 55.31 230.56 84.51 222.59 84.51 222.59 5.01 230.56 5.01 230.56 45.8 273.98 5.01 284.39 5.01 245.89 41.23 287.35 84.51 276.48 84.51" style="fill:#3e7ecc;"/><polygon points="288.54 84.51 288.54 5.01 345.19 5.01 345.19 12.4 296.51 12.4 296.51 40.38 342.01 40.38 342.01 47.78 296.51 47.78 296.51 77.13 346.33 77.13 346.33 84.51 288.54 84.51" style="fill:#3e7ecc;"/><polygon points="377.6 84.51 377.6 12.4 349.17 12.4 349.17 5.01 414 5.01 414 12.4 385.57 12.4 385.57 84.51 377.6 84.51" style="fill:#3e7ecc;"/><path d="M102.77,84.23c-10.87,0-20.17-3.77-27.66-11.21-1.97-1.98-3.71-4.1-5.15-6.31-.1-.16-.15-.23-.19-.31l-.06-.13-.11-.14c-.7-1.14-1.3-2.21-1.82-3.29-2.61-5.33-3.93-11.41-3.93-18.08,0-.73,.02-1.45,.06-2.16,.45-10.14,4.22-18.87,11.21-25.94,7.48-7.55,16.79-11.38,27.65-11.38,2.1,0,4.15,.14,6.1,.41l1.11,.16-8.13,6.62h-.16c-8.1,.24-15.12,3.33-20.86,9.19-2.51,2.55-4.52,5.4-5.96,8.48-2.05,4.31-3.09,9.23-3.09,14.62,0,1.37,.06,2.62,.19,3.81,.72,7.49,3.72,13.96,8.92,19.24,2.88,2.92,6.04,5.16,9.4,6.66,3.8,1.73,8,2.6,12.49,2.6,6.94,0,13.05-1.94,18.15-5.75,1.36-1,2.68-2.17,3.91-3.46,5.86-6.11,8.82-13.88,8.82-23.1s-3.04-16.99-9.04-23.1c-2.39-2.43-5.01-4.41-7.81-5.88l-.7-.37,6.79-4.79,.27,.17c2.55,1.57,4.98,3.5,7.2,5.73,7.44,7.44,11.21,16.94,11.21,28.26s-3.77,20.72-11.21,28.2c-7.45,7.48-16.73,11.27-27.6,11.27Z" style="fill:#fff;"/><path d="M102.77,85.54c-11.23,0-20.84-3.9-28.57-11.58-2.04-2.04-3.83-4.24-5.32-6.52-.11-.16-.16-.24-.2-.32l-.07-.13-.11-.14c-.73-1.17-1.34-2.28-1.88-3.39-2.69-5.5-4.06-11.79-4.06-18.68,0-.76,.02-1.5,.06-2.23,.46-10.48,4.36-19.5,11.58-26.8,7.73-7.8,17.34-11.76,28.57-11.76,2.16,0,4.29,.14,6.3,.43l1.14,.16-8.4,6.83h-.17c-8.37,.25-15.62,3.44-21.55,9.5-2.59,2.63-4.66,5.58-6.15,8.76-2.12,4.45-3.2,9.53-3.2,15.1,0,1.42,.06,2.71,.2,3.93,.75,7.74,3.85,14.42,9.21,19.88,2.97,3.01,6.24,5.33,9.71,6.89,3.93,1.79,8.27,2.69,12.91,2.69,7.17,0,13.48-2,18.75-5.94,1.4-1.04,2.76-2.24,4.04-3.57,6.05-6.31,9.12-14.34,9.12-23.87s-3.14-17.56-9.34-23.87c-2.46-2.51-5.18-4.55-8.07-6.08l-.73-.38,7.02-4.95,.28,.17c2.64,1.62,5.14,3.61,7.44,5.91,7.68,7.68,11.58,17.51,11.58,29.19s-3.9,21.4-11.58,29.13c-7.69,7.72-17.29,11.64-28.51,11.64Z" style="fill:#7f7f7f;"/><path d="M498.42,12.4l-31.97,48.91h-2.15l-32.21-48.91V86.6h-6.44V3.1h7.63l31.97,48.67L496.87,3.1h7.87V86.6h-6.32V12.4Z" style="fill:#7f7f7f; stroke:#7f7f7f; stroke-miterlimit:10; stroke-width:1.5px;"/><path d="M568.84,18.48c-7.28-7.16-17.42-10.74-26.84-10.74-24.46,0-36.98,17.89-36.86,37.22,0,19.68,12.53,36.62,36.86,36.62,8.95,0,18.25-3.1,25.41-9.66v-23.38h-29.11v-5.61h35.19v31.25c-8.71,8.71-19.09,13.48-31.49,13.48-28.39,0-43.06-19.8-43.06-42.59-.12-26.13,17.66-43.18,43.06-43.18,10.97,0,22.07,4.18,30.54,12.53l-3.7,4.06Z" style="fill:#7f7f7f; stroke:#7f7f7f; stroke-miterlimit:10; stroke-width:1.5px;"/><path d="M631.4,60.12l-22.43-50.82-22.43,50.82-2.5,5.96-9.07,20.52h-6.92L605.51,3.1h7.04l37.46,83.51h-6.92l-9.19-20.52-2.5-5.96Z" style="fill:#7f7f7f; stroke:#7f7f7f; stroke-miterlimit:10; stroke-width:1.5px;"/></svg>