<?xml version="1.0" encoding="UTF-8"?><svg id="Layer_1" xmlns="http://www.w3.org/2000/svg" viewBox="0 0 87.91 90"><defs><style>.cls-1{fill:#464646;}.cls-1,.cls-2,.cls-3,.cls-4,.cls-5,.cls-6{fill-rule:evenodd;}.cls-2{fill:#fff;}.cls-3{fill:#7595cd;}.cls-7,.cls-5{fill:#e1e2e1;}.cls-4{fill:#484848;}.cls-6{fill:#eeefef;}</style></defs><path class="cls-6" d="M45.18,76.45c18.86,0,34.23-2.98,34.23-6.63s-15.38-6.63-34.23-6.63-34.23,2.98-34.23,6.63,15.38,6.63,34.23,6.63Z"/><path class="cls-2" d="M65,37.97c0-1.72-1.17-3.96-3.55-4.95v-1.93l.47-.73,.11-.66v-1.58l-.04-.97-.5-.74-.91-.58-1.94-.59-1.96-.27-3.56-.18-8.61-.1h-5.54l-3.77,.14-3.17,.36-1.57,.36-1.19,.56-.71,.66-.24,.68,.02,2.43,.08,.48,.48,.6,.02,2.07c-1.61,.91-3.22,2.1-3.55,4.95v26.87c0,1.87,1.09,3.29,2.49,4.23,4.71,3.15,29.95,3.15,34.66,0,1.41-.94,2.49-2.36,2.49-4.23v-26.87Z"/><path class="cls-6" d="M28.92,57.75v-18.8c7.98-1.61,20.39-1.61,30.55-.76v18.8c-10.16-.7-22.15-.5-30.55,.76Z"/><path class="cls-5" d="M59.73,25.61c.33-.02,1.78,.56,1.82,.98,.04,.47-.09,.92-.94,.9-1.54-.05-2.53-.63-7.27-.92-5.84-.35-12.79-.36-18.65,.24-1.21,.12-2.79,.18-3.45,.47-1.8,.78-1.44-.45-1.06-.9,.6-.72,2.98-1.24,6.09-1.51,1.95-.17,3.91-.25,5.81-.27,1.12-.01,2.19-.07,3.32-.07,.71,0,1.41,0,2.12,.04,3.7,.21,8.82-.05,12.21,1.05Z"/><path class="cls-4" d="M62.32,27.45c0,.16-.13,.29-.29,.29s-.29-.13-.29-.29c0-.3-.17-.58-.44-.83-.35-.32-.88-.59-1.48-.8-1.97-.7-8.29-1.05-14.63-1.05s-12.66,.35-14.63,1.05c-.6,.21-1.13,.48-1.48,.8-.28,.25-.44,.53-.44,.83,0,.16-.13,.29-.29,.29s-.29-.13-.29-.29c0-.49,.24-.91,.64-1.27,.41-.37,1.01-.68,1.68-.92,2.03-.72,8.44-1.08,14.83-1.08s12.79,.36,14.83,1.08c.67,.24,1.26,.54,1.68,.92,.4,.36,.64,.78,.64,1.27Z"/><path class="cls-4" d="M54.3,26.35c.16,.01,.28,.15,.27,.31-.01,.16-.15,.28-.31,.27-.48-.03-.96-.06-1.44-.09-.51-.03-1.03-.05-1.55-.07-.16,0-.29-.14-.28-.3,0-.16,.14-.29,.3-.28,.54,.02,1.06,.05,1.56,.07,.51,.03,1,.06,1.45,.09Z"/><path class="cls-4" d="M49.3,26.13c.16,0,.29,.14,.29,.3,0,.16-.14,.29-.3,.29-3.94-.1-8.27-.05-11.84,.14-3.19,.17-5.77,.46-6.89,.86-.15,.05-.32-.03-.37-.18-.05-.15,.03-.32,.18-.37,1.18-.42,3.81-.71,7.06-.89,3.58-.19,7.93-.24,11.89-.14Z"/><path class="cls-2" d="M54.63,7.09c-3.11,3.65-3.25,9.19-.41,16.62,.83,2.1,1.7,4.24,2.61,6.43,.23,.59,.48,1.43,.75,2.51,1.09,5.06,.15,9.25-2.83,12.57h-19.35c1.45-1.91,2.35-4.21,2.71-6.9,.43-3.11-.53-7.62-2.88-13.53-1.62-4.43-2.4-7.71-2.35-9.83-.03-2.92,.8-5.54,2.5-7.86h19.25Z"/><path class="cls-6" d="M40.05,39.96c.7-3.97,.16-9.06-2.85-15.28-1.99-5.02-2.67-9.13-2.06-12.33,1.91-.25,3.59-1.41,4.53-3.12h8.29c.16,1.43,1.02,2.67,2.29,3.3-.43,4.1,.77,9.14,3.6,15.13,1.63,4.26,2.18,8.4,1.66,12.44-1.85,.48-3.48,1.57-4.64,3.12h-7.94c-.08-1.44-1.58-2.7-2.88-3.26Z"/><path class="cls-6" d="M39.76,39.91c.37-2.08,.39-4.47-.12-7.17-.45-2.4-1.31-5.04-2.71-7.94v-.02c-1.01-2.53-1.68-4.83-2.03-6.91-.35-2.09-.37-3.95-.06-5.58,.03-.13,.14-.23,.26-.24,.9-.12,1.75-.45,2.49-.96,.74-.51,1.36-1.19,1.81-2.01,.05-.1,.15-.15,.26-.15h8.29c.16,0,.29,.12,.29,.28,.08,.66,.31,1.27,.68,1.8v.02c.38,.52,.87,.95,1.45,1.24,.11,.06,.18,.18,.16,.3-.21,2.01-.02,4.27,.57,6.75,.59,2.5,1.6,5.24,3,8.21v.02c.83,2.15,1.38,4.27,1.66,6.37,.28,2.1,.29,4.17,.02,6.21-.02,.12-.11,.22-.22,.25-.89,.23-1.73,.61-2.48,1.12-.76,.51-1.43,1.15-1.99,1.89-.06,.08-.15,.12-.23,.12h-7.94c-.16,0-.29-.13-.29-.29h0c-.04-.58-.33-1.13-.76-1.61-.53-.6-1.27-1.09-1.94-1.38-.13-.05-.2-.19-.17-.32h0Zm.46-7.28c.5,2.68,.5,5.07,.16,7.15,.69,.33,1.4,.83,1.94,1.44,.44,.5,.77,1.08,.88,1.7h7.53c.58-.75,1.27-1.39,2.04-1.91,.76-.51,1.59-.9,2.48-1.15,.23-1.93,.22-3.88-.05-5.87-.27-2.05-.81-4.12-1.62-6.23-1.42-3.01-2.43-5.78-3.04-8.31-.59-2.47-.79-4.72-.6-6.76-.59-.33-1.1-.79-1.48-1.34v-.02c-.39-.54-.64-1.16-.76-1.82h-7.87c-.48,.83-1.14,1.53-1.9,2.05-.76,.52-1.62,.88-2.54,1.03-.26,1.51-.23,3.24,.09,5.17,.34,2.03,1,4.29,1.99,6.79,1.42,2.94,2.29,5.62,2.75,8.07Z"/><path class="cls-4" d="M32.76,12.49c.03-.16,.18-.27,.34-.24,.16,.03,.27,.18,.24,.34-.68,4.22,.87,8.51,2.44,12.85,2.31,6.37,4.65,12.84,.19,19.49h18.79c.16,0,.29,.13,.29,.29s-.13,.29-.29,.29h-19.34c-.06,0-.12-.02-.17-.06-.13-.09-.16-.28-.07-.41,4.71-6.56,2.37-13.03,.06-19.41-1.6-4.41-3.18-8.77-2.47-13.14Z"/><path class="cls-4" d="M56.44,29.94c-.06-.15,.02-.32,.17-.38,.15-.06,.32,.02,.38,.17,1.18,3.12,1.57,5.97,1.24,8.55-.34,2.68-1.46,5.06-3.26,7.13-.11,.12-.29,.14-.41,.03-.12-.11-.14-.29-.03-.41,1.72-1.98,2.79-4.26,3.12-6.82,.32-2.48-.06-5.23-1.21-8.27Z"/><path class="cls-4" d="M55.8,26.84c.06,.15,0,.32-.15,.39-.15,.06-.32,0-.39-.15-1.98-4.56-3.13-8.51-3.32-11.85-.18-3.14,.48-5.75,2.08-7.84h-18.49c-.35,.48-.72,1.07-1.04,1.71-.29,.57-.55,1.18-.71,1.77-.04,.16-.2,.25-.36,.2-.16-.04-.25-.2-.2-.36,.17-.63,.44-1.27,.75-1.88,.36-.71,.78-1.37,1.17-1.89,.05-.08,.14-.14,.25-.14h19.25c.07,0,.14,.02,.19,.07,.12,.11,.14,.29,.03,.41-1.78,2.05-2.51,4.68-2.33,7.91,.19,3.27,1.32,7.15,3.27,11.65Z"/><path class="cls-1" d="M43.87,20.89c2.81,0,5.89,2.44,6.88,5.46,.99,3.01-.48,5.46-3.29,5.46s-5.89-2.44-6.88-5.46c-.99-3.01,.48-5.46,3.29-5.46Z"/><path class="cls-1" d="M47.47,31.51c.16,0,.29,.13,.29,.29s-.13,.29-.29,.29c-1.47,0-3.01-.64-4.3-1.66-1.29-1.02-2.34-2.43-2.86-4-.22-.67-.33-1.31-.33-1.91,0-.89,.23-1.69,.66-2.33,.43-.65,1.06-1.13,1.84-1.39,.42-.14,.88-.21,1.39-.21,1.47,0,3.01,.64,4.3,1.66,1.29,1.02,2.34,2.43,2.86,4,.05,.15-.03,.32-.19,.37-.15,.05-.32-.03-.37-.19-.48-1.45-1.46-2.77-2.66-3.72-1.2-.95-2.6-1.53-3.94-1.53-.44,0-.84,.06-1.2,.18-.66,.22-1.18,.62-1.54,1.16-.36,.54-.56,1.23-.56,2,0,.54,.09,1.12,.3,1.73,.48,1.45,1.46,2.77,2.66,3.72,1.2,.95,2.6,1.53,3.94,1.53Z"/><path class="cls-3" d="M25.36,40.31v18.8c5.77,1.61,14.73,1.61,22.08,.76v-18.8c-7.34,.7-16.01,.5-22.08-.76Z"/><ellipse class="cls-7" cx="44.33" cy="67.47" rx="15.14" ry="1.83"/><path class="cls-4" d="M61.15,31.09c0-.16,.13-.29,.29-.29s.29,.13,.29,.29v1.76c1.12,.62,1.99,1.36,2.59,2.2,.63,.88,.96,1.87,.96,2.93v26.87c0,.93-.25,1.76-.68,2.48-.47,.81-1.16,1.47-1.95,1.99-2.4,1.61-9.96,2.41-17.49,2.41s-15.09-.8-17.49-2.41c-.78-.52-1.47-1.19-1.95-1.99-.42-.72-.68-1.55-.68-2.48v-26.87c0-1.06,.33-2.05,.96-2.93,.6-.83,1.47-1.57,2.59-2.2v-1.9c0-.16,.13-.29,.29-.29s.29,.13,.29,.29v2.07c0,.1-.06,.21-.16,.26-1.12,.6-1.97,1.31-2.55,2.11-.56,.78-.85,1.65-.85,2.59v26.87c0,.82,.22,1.55,.59,2.18,.43,.73,1.05,1.33,1.77,1.81,2.3,1.54,9.73,2.31,17.17,2.31s14.86-.77,17.17-2.31c.71-.48,1.34-1.08,1.77-1.81,.37-.63,.59-1.36,.59-2.18v-26.87c0-.94-.29-1.81-.85-2.59-.57-.79-1.42-1.5-2.52-2.09-.11-.04-.18-.15-.18-.27v-1.93Z"/><path class="cls-4" d="M34.83,65.17c.16-.02,.31,.1,.32,.26,.02,.16-.1,.31-.26,.32-1.78,.2-3.19,.46-4.14,.74-.83,.24-1.27,.46-1.27,.63,0,.43,1.69,.88,4.43,1.25,2.88,.39,6.86,.63,11.27,.63s8.39-.24,11.27-.63c2.74-.37,4.43-.82,4.43-1.25v-.02s-.05-.06-.09-.09c-.12-.11-.13-.29-.03-.41,.11-.12,.29-.13,.41-.03,.09,.08,.15,.16,.2,.24,.06,.1,.08,.2,.08,.31,0,.77-1.89,1.41-4.94,1.83-2.91,.4-6.92,.64-11.35,.64s-8.44-.24-11.35-.64c-3.05-.41-4.94-1.06-4.94-1.83,0-.47,.59-.87,1.7-1.2,.99-.29,2.42-.55,4.23-.76Z"/><path class="cls-4" d="M52.58,64.9c.16,.01,.28,.15,.27,.31-.01,.16-.15,.28-.31,.27-1.15-.08-2.35-.14-3.57-.18-1.22-.04-2.49-.06-3.79-.06-1.48,0-2.93,.03-4.31,.08-1.38,.05-2.73,.13-3.99,.24-.16,.01-.3-.11-.32-.27-.01-.16,.11-.3,.27-.32,1.25-.1,2.6-.18,4.02-.24,1.42-.05,2.88-.08,4.33-.08,1.27,0,2.55,.02,3.81,.06,1.25,.04,2.46,.1,3.59,.18Z"/><path class="cls-4" d="M25.3,40.6c-.16-.03-.26-.19-.23-.35,.03-.16,.19-.26,.35-.23,.76,.16,1.57,.3,2.42,.42,.87,.13,1.77,.24,2.68,.33,.16,.02,.28,.16,.26,.32-.02,.16-.16,.28-.32,.26-.94-.09-1.85-.21-2.71-.34-.84-.13-1.66-.27-2.45-.43Z"/><path class="cls-4" d="M42.19,60.02c.16,0,.3,.12,.31,.28,0,.16-.12,.3-.28,.31-3.18,.17-6.45,.17-9.48-.04-2.75-.2-5.32-.57-7.45-1.17-.16-.04-.25-.2-.2-.36,.04-.16,.2-.25,.36-.2,2.09,.58,4.62,.95,7.34,1.15,3.01,.21,6.25,.21,9.41,.04Z"/><path class="cls-4" d="M32.64,41.55c-.16-.01-.28-.15-.27-.31s.15-.28,.31-.27c2.37,.17,4.86,.23,7.34,.2,2.51-.03,5.02-.16,7.39-.39,.16-.02,.3,.1,.32,.26v18.83c0,.16-.12,.28-.27,.29-.56,.06-1.04,.12-1.57,.17-.52,.05-1.03,.1-1.63,.14-.16,.01-.3-.11-.31-.27-.01-.16,.11-.3,.27-.31,.63-.05,1.13-.09,1.62-.14,.4-.04,.83-.09,1.31-.14v-18.22c-2.29,.21-4.7,.33-7.12,.36-2.5,.03-5.01-.03-7.38-.2Z"/><path class="cls-4" d="M38.59,45.67c-.16,0-.29-.13-.29-.29s.13-.29,.29-.29c.96,0,1.92-.02,2.88-.05,.95-.03,1.89-.08,2.84-.14,.16,0,.3,.11,.31,.27,.01,.16-.11,.3-.27,.31-.93,.06-1.88,.11-2.86,.14-.96,.03-1.93,.05-2.9,.05Z"/><path class="cls-4" d="M41.03,48.27c-.16,0-.29-.13-.29-.29s.13-.29,.29-.29c.55,0,1.1-.01,1.65-.03,.54-.02,1.08-.04,1.63-.08,.16,0,.3,.11,.31,.27,.01,.16-.11,.3-.27,.31-.53,.03-1.08,.06-1.65,.08-.55,.02-1.11,.03-1.67,.03Z"/><path class="cls-4" d="M41.03,50.21c-.16,0-.29-.13-.29-.29s.13-.29,.29-.29c.55,0,1.1-.01,1.65-.03,.54-.02,1.08-.04,1.63-.08,.16,0,.3,.11,.31,.27,.01,.16-.11,.3-.27,.31-.53,.03-1.08,.06-1.65,.08-.55,.02-1.11,.03-1.67,.03Z"/><path class="cls-4" d="M41.04,57.16c-.16,0-.29-.13-.3-.29,0-.16,.13-.3,.29-.3,.54-.01,1.09-.03,1.65-.06,.53-.03,1.08-.07,1.63-.11,.16-.01,.3,.11,.32,.27,.01,.16-.11,.3-.27,.32-.53,.04-1.08,.08-1.65,.11-.54,.03-1.1,.05-1.67,.06Z"/><path class="cls-6" d="M28.33,27.47c0,.66,.96,1.56,2.12,1.89,3.87,1.1,22.27,1.56,28.5,.25,1.5-.31,3.07-2.04,3.07-1.22,0,.21,.16,1.58-.15,2.05-.67,1.01-2.21,1.34-3,1.57-3.87,1.11-24.16,.99-28.03-.11-1.16-.33-2.52-1.17-2.52-1.83v-2.59Z"/><path class="cls-4" d="M61.74,27.45c0-.16,.13-.29,.29-.29s.29,.13,.29,.29c0,.47-.24,.87-.64,1.22-.41,.35-1.01,.64-1.68,.87-2.03,.68-8.43,1.02-14.82,1.02s-12.79-.34-14.82-1.02c-.67-.22-1.26-.51-1.68-.87-.4-.34-.64-.75-.64-1.22,0-.16,.13-.29,.29-.29s.29,.13,.29,.29c0,.28,.16,.54,.44,.77,.35,.3,.88,.55,1.48,.76,1.97,.66,8.3,.99,14.64,.99s12.67-.33,14.64-.99c.6-.2,1.13-.46,1.48-.76,.27-.23,.44-.49,.44-.77Z"/><path class="cls-4" d="M61.74,27.45c0-.16,.13-.29,.29-.29s.29,.13,.29,.29v2.43c0,.49-.24,.91-.64,1.27-.41,.38-1.01,.68-1.68,.92-2.03,.72-8.44,1.09-14.83,1.09s-12.79-.36-14.83-1.09c-.67-.24-1.26-.55-1.68-.92-.4-.36-.64-.78-.64-1.27v-2.43c0-.16,.13-.29,.29-.29s.29,.13,.29,.29v2.43c0,.31,.17,.59,.44,.84,.35,.32,.88,.59,1.48,.8,1.97,.7,8.29,1.05,14.63,1.05s12.66-.35,14.63-1.05c.6-.21,1.13-.48,1.48-.8,.28-.25,.44-.53,.44-.84v-2.43Z"/><path class="cls-4" d="M61.32,32.75c.15-.07,.32-.01,.39,.14,.07,.15,.01,.32-.14,.39-.99,.48-2.64,.84-4.6,1.08-2.2,.27-4.8,.41-7.26,.41-.16,0-.29-.13-.29-.29s.13-.29,.29-.29c2.44,0,5.01-.13,7.19-.4,1.9-.24,3.49-.58,4.41-1.03Z"/><path class="cls-2" d="M35.04,48.57c.05,.15-.02,.32-.18,.37-.15,.05-.32-.02-.37-.18-.26-.73-.8-1.15-1.41-1.33-.38-.11-.79-.13-1.18-.07-.39,.06-.75,.2-1.05,.41-.41,.29-.69,.72-.69,1.24,0,1.13,1.11,1.44,2.21,1.74,1.32,.36,2.64,.72,2.64,2.3,0,.73-.37,1.32-.93,1.72-.37,.26-.82,.44-1.3,.52-.47,.08-.97,.05-1.44-.09-.77-.23-1.46-.77-1.79-1.7-.05-.15,.02-.32,.18-.37,.15-.05,.32,.02,.37,.18,.26,.73,.8,1.15,1.41,1.33,.38,.11,.79,.13,1.18,.07,.39-.06,.75-.2,1.05-.41,.41-.29,.69-.72,.69-1.24,0-1.13-1.11-1.44-2.21-1.74-1.32-.36-2.64-.72-2.64-2.3,0-.73,.37-1.32,.93-1.72,.37-.26,.82-.44,1.3-.52,.47-.08,.97-.05,1.44,.09,.77,.23,1.46,.77,1.79,1.7Z"/><path class="cls-2" d="M32.04,45.79c0-.16,.13-.29,.29-.29s.29,.13,.29,.29v10.57c0,.16-.13,.29-.29,.29s-.29-.13-.29-.29v-10.57Z"/></svg>