<?xml version="1.0" encoding="iso-8859-1"?>
<!-- Generator: Adobe Illustrator 19.0.0, SVG Export Plug-In . SVG Version: 6.00 Build 0)  -->
<svg version="1.1" id="Capa_1" xmlns="http://www.w3.org/2000/svg" xmlns:xlink="http://www.w3.org/1999/xlink" x="0px" y="0px"
	 viewBox="0 0 490.383 490.383" style="enable-background:new 0 0 490.383 490.383;" xml:space="preserve">
<g>
	<g>
		<g>
			<g>
				<g>
					<path d="M138.9,406.567c-27.6,27.2-62.2,37.3-77.4,22.2c-15.2-15.2-5.1-49.4,22.2-77.4l-9.3-9.3c-41.2,41.6-58.3,91.8-38.1,112
						s70,3.1,112-38.1L138.9,406.567z"/>
				</g>
				<polygon points="175.8,417.067 248.9,490.167 274.6,464.467 254.8,356.367 				"/>
				<polygon points="133.8,235.367 25.7,215.567 0,241.267 73.1,314.367 				"/>
			</g>
		</g>
		<path d="M489.3,25.067c-0.4-11.7-12.4-23.7-24.1-24.1c-129.6-9.3-181.3,70.7-181.3,70.7l-197.5,255.9l76.2,76.2l255.9-197.6
			C504.8,139.467,489.3,25.067,489.3,25.067z M402.5,152.567c-17.9,17.9-47.1,17.9-64.9,0c-17.9-17.9-17.9-47.1,0-64.9
			c17.9-17.9,47.1-17.9,64.9,0C420.4,105.567,420.4,134.667,402.5,152.567z"/>
	</g>
</g>
<g>
</g>
<g>
</g>
<g>
</g>
<g>
</g>
<g>
</g>
<g>
</g>
<g>
</g>
<g>
</g>
<g>
</g>
<g>
</g>
<g>
</g>
<g>
</g>
<g>
</g>
<g>
</g>
<g>
</g>
</svg>
