<?xml version="1.0" encoding="UTF-8"?>
<svg id="Layer_2" data-name="Layer 2" xmlns="http://www.w3.org/2000/svg" viewBox="0 0 591.45 321.68">
  <defs>
    <style>
      .cls-1 {
        fill: #99999a;
      }

      .cls-2, .cls-3 {
        fill: #7797cf;
      }

      .cls-4 {
        fill: #fff;
      }

      .cls-4, .cls-5, .cls-6, .cls-7, .cls-8, .cls-9, .cls-3, .cls-10, .cls-11, .cls-12, .cls-13 {
        fill-rule: evenodd;
      }

      .cls-5 {
        fill: #f7f7f7;
      }

      .cls-6, .cls-14 {
        fill: #c2c2c2;
      }

      .cls-7 {
        fill: #ffa724;
      }

      .cls-15 {
        fill: #4f4f4f;
      }

      .cls-16, .cls-13 {
        fill: #e8e8e8;
      }

      .cls-8, .cls-17 {
        fill: #f2f2f2;
      }

      .cls-9 {
        fill: #ff8400;
      }

      .cls-10 {
        stroke: #f5f5f5;
        stroke-miterlimit: 28.93;
        stroke-width: .21px;
      }

      .cls-10, .cls-11 {
        fill: #f5f5f5;
      }

      .cls-12 {
        fill: #ebebeb;
      }
    </style>
  </defs>
  <g id="Layer_1-2" data-name="Layer 1">
    <g id="Layer_1-2" data-name="Layer 1-2">
      <path class="cls-2" d="M288.69,273.4c-.19-.2-.18-.52,.03-.71s.52-.18,.71,.03c.25,.26,.57,.48,.93,.63,.37,.15,.78,.23,1.21,.23s.85-.08,1.21-.23c.37-.15,.68-.37,.93-.63,.19-.2,.5-.21,.71-.03s.21,.5,.03,.71c-.35,.38-.79,.67-1.29,.87s-1.03,.3-1.58,.3-1.1-.11-1.58-.3c-.49-.2-.93-.49-1.29-.87h-.02Z"/>
      <path class="cls-2" d="M298.7,272.72c.19-.2,.5-.21,.71-.03s.21,.5,.03,.71c-.35,.38-.79,.67-1.29,.87s-1.03,.3-1.58,.3-1.1-.11-1.58-.3c-.49-.2-.93-.49-1.29-.87-.19-.2-.18-.52,.03-.71s.52-.18,.71,.03c.25,.26,.57,.48,.93,.63,.37,.15,.78,.23,1.21,.23s.85-.08,1.21-.23c.37-.15,.68-.37,.93-.63h-.02Z"/>
      <path class="cls-2" d="M298.7,273.4c-.19-.2-.18-.52,.03-.71s.52-.18,.71,.03c.25,.26,.57,.48,.93,.63,.37,.15,.78,.23,1.21,.23s.85-.08,1.21-.23,.68-.37,.93-.63c.19-.2,.5-.21,.71-.03s.21,.5,.03,.71c-.35,.38-.79,.67-1.29,.87-.49,.2-1.03,.3-1.58,.3s-1.1-.11-1.58-.3c-.49-.2-.93-.49-1.29-.87h-.02Z"/>
      <path class="cls-2" d="M308.72,273.4c-.19-.2-.18-.52,.03-.71s.52-.18,.71,.03c.25,.26,.57,.48,.93,.63,.37,.15,.78,.23,1.21,.23s.85-.08,1.21-.23c.37-.15,.68-.37,.93-.63,.19-.2,.5-.21,.71-.03s.21,.5,.03,.71c-.35,.38-.79,.67-1.29,.87-.49,.2-1.03,.3-1.58,.3s-1.1-.11-1.58-.3c-.49-.2-.93-.49-1.29-.87h-.02Z"/>
      <path class="cls-2" d="M318.74,273.4c-.19-.2-.18-.52,.03-.71s.52-.18,.71,.03c.25,.26,.57,.48,.93,.63,.37,.15,.78,.23,1.21,.23s.85-.08,1.21-.23c.37-.15,.68-.37,.93-.63,.19-.2,.5-.21,.71-.03s.21,.5,.03,.71c-.35,.38-.79,.67-1.29,.87-.49,.2-1.03,.3-1.58,.3s-1.1-.11-1.58-.3c-.49-.2-.93-.49-1.29-.87h-.02Z"/>
      <path class="cls-2" d="M328.76,272.72c.19-.2,.5-.21,.71-.03s.21,.5,.03,.71c-.35,.38-.79,.67-1.29,.87-.49,.2-1.03,.3-1.58,.3s-1.1-.11-1.58-.3c-.49-.2-.93-.49-1.29-.87-.19-.2-.18-.52,.03-.71s.52-.18,.71,.03c.25,.26,.57,.48,.93,.63,.37,.15,.78,.23,1.21,.23s.85-.08,1.21-.23c.37-.15,.68-.37,.93-.63h-.02Z"/>
      <path class="cls-2" d="M328.76,273.4c-.19-.2-.18-.52,.03-.71s.52-.18,.71,.03c.25,.26,.57,.48,.93,.63,.37,.15,.78,.23,1.21,.23s.85-.08,1.21-.23c.37-.15,.68-.37,.93-.63,.19-.2,.5-.21,.71-.03s.21,.5,.03,.71c-.35,.38-.79,.67-1.29,.87-.49,.2-1.03,.3-1.58,.3s-1.1-.11-1.58-.3c-.49-.2-.93-.49-1.29-.87h-.02Z"/>
      <path class="cls-2" d="M333.77,273.4c-.19-.2-.18-.52,.03-.71s.52-.18,.71,.03c.25,.26,.57,.48,.93,.63,.37,.15,.78,.23,1.21,.23s.85-.08,1.21-.23c.37-.15,.68-.37,.93-.63,.19-.2,.5-.21,.71-.03s.21,.5,.03,.71c-.35,.38-.79,.67-1.29,.87-.49,.2-1.03,.3-1.58,.3s-1.1-.11-1.58-.3c-.49-.2-.93-.49-1.29-.87h-.02Z"/>
      <path class="cls-2" d="M343.79,272.72c.19-.2,.5-.21,.71-.03s.21,.5,.03,.71c-.35,.38-.79,.67-1.29,.87-.49,.2-1.03,.3-1.58,.3s-1.1-.11-1.58-.3c-.49-.2-.93-.49-1.29-.87-.19-.2-.18-.52,.03-.71s.52-.18,.71,.03c.25,.26,.57,.48,.93,.63,.37,.15,.78,.23,1.21,.23s.85-.08,1.21-.23c.37-.15,.68-.37,.93-.63h-.02Z"/>
      <path class="cls-2" d="M343.79,273.4c-.19-.2-.18-.52,.03-.71s.52-.18,.71,.03c.25,.26,.57,.48,.93,.63,.37,.15,.78,.23,1.21,.23s.85-.08,1.21-.23c.37-.15,.68-.37,.93-.63,.19-.2,.5-.21,.71-.03s.21,.5,.03,.71c-.35,.38-.79,.67-1.29,.87-.49,.2-1.03,.3-1.58,.3s-1.1-.11-1.58-.3c-.49-.2-.93-.49-1.29-.87h-.02Z"/>
      <path class="cls-2" d="M353.82,272.72c.19-.2,.5-.21,.71-.03s.21,.5,.03,.71c-.35,.38-.79,.67-1.29,.87-.49,.2-1.03,.3-1.58,.3s-1.1-.11-1.58-.3c-.49-.2-.93-.49-1.29-.87-.19-.2-.18-.52,.03-.71s.52-.18,.71,.03c.25,.26,.57,.48,.93,.63,.37,.15,.78,.23,1.21,.23s.85-.08,1.21-.23c.37-.15,.68-.37,.93-.63h-.02Z"/>
      <path class="cls-2" d="M353.82,273.4c-.19-.2-.18-.52,.03-.71s.52-.18,.71,.03c.25,.26,.57,.48,.93,.63,.37,.15,.78,.23,1.21,.23s.85-.08,1.21-.23c.37-.15,.68-.37,.93-.63,.19-.2,.5-.21,.71-.03s.21,.5,.03,.71c-.35,.38-.79,.67-1.29,.87-.49,.2-1.03,.3-1.58,.3s-1.1-.11-1.58-.3c-.49-.2-.93-.49-1.29-.87h-.02Z"/>
      <path class="cls-2" d="M358.83,273.4c-.19-.2-.18-.52,.03-.71s.52-.18,.71,.03c.25,.26,.57,.48,.93,.63,.37,.15,.78,.23,1.21,.23s.85-.08,1.21-.23c.37-.15,.68-.37,.93-.63,.19-.2,.5-.21,.71-.03s.21,.5,.03,.71c-.35,.38-.79,.67-1.29,.87-.49,.2-1.03,.3-1.58,.3s-1.1-.11-1.58-.3c-.49-.2-.93-.49-1.29-.87h-.02Z"/>
      <path class="cls-2" d="M368.85,272.72c.19-.2,.5-.21,.71-.03s.21,.5,.03,.71c-.35,.38-.79,.67-1.29,.87-.49,.2-1.03,.3-1.58,.3s-1.1-.11-1.58-.3c-.49-.2-.93-.49-1.29-.87-.19-.2-.18-.52,.03-.71s.52-.18,.71,.03c.25,.26,.57,.48,.93,.63,.37,.15,.78,.23,1.21,.23s.85-.08,1.21-.23c.37-.15,.68-.37,.93-.63h-.02Z"/>
      <polygon class="cls-6" points="340.36 113.33 342.47 113.33 342.47 301.49 340.36 301.49 340.36 113.33"/>
      <path class="cls-1" d="M340.36,112.84h2.12c.28,0,.5,.23,.5,.5v188.16c0,.28-.23,.5-.5,.5h-2.12c-.28,0-.5-.23-.5-.5V113.35c0-.28,.23-.5,.5-.5h0Zm1.63,.99h-1.12v187.16h1.12V113.84Z"/>
      <path class="cls-15" d="M344.61,113.84c-.28,0-.5-.23-.5-.5s.23-.5,.5-.5h24.13c.28,0,.5,.23,.5,.5v18.81c0,.28-.23,.5-.5,.5h-26.24c-.28,0-.5-.23-.5-.5s.23-.5,.5-.5h25.74v-17.82h-23.63Z"/>
      <path class="cls-1" d="M369.01,131.74c.23,.16,.28,.47,.11,.69s-.47,.28-.69,.11l-23.24-16.67c-.23-.16-.28-.47-.11-.69s.47-.28,.69-.11l23.24,16.67Z"/>
      <path class="cls-1" d="M342.77,132.56c-.23,.16-.54,.11-.69-.11-.16-.23-.11-.54,.11-.69l26.24-18.81c.23-.16,.54-.11,.69,.11,.16,.23,.11,.54-.11,.69l-26.24,18.81Z"/>
      <path class="cls-15" d="M344.61,132.65c-.28,0-.5-.23-.5-.5s.23-.5,.5-.5h24.13c.28,0,.5,.23,.5,.5v18.81c0,.28-.23,.5-.5,.5h-26.24c-.28,0-.5-.23-.5-.5s.23-.5,.5-.5h25.74v-17.82h-23.63Z"/>
      <path class="cls-15" d="M369.01,150.57c.23,.16,.28,.47,.11,.69-.16,.23-.47,.28-.69,.11l-23.24-16.67c-.23-.16-.28-.47-.11-.69s.47-.28,.69-.11l23.24,16.67Z"/>
      <path class="cls-1" d="M342.77,151.38c-.23,.16-.54,.11-.69-.11-.16-.23-.11-.54,.11-.69l26.24-18.81c.23-.16,.54-.11,.69,.11,.16,.23,.11,.54-.11,.69l-26.24,18.81Z"/>
      <path class="cls-1" d="M344.61,151.46c-.28,0-.5-.23-.5-.5s.23-.5,.5-.5h24.13c.28,0,.5,.23,.5,.5v18.81c0,.28-.23,.5-.5,.5h-26.24c-.28,0-.5-.23-.5-.5s.23-.5,.5-.5h25.74v-17.82h-23.63Z"/>
      <path class="cls-15" d="M369.01,169.38c.23,.16,.28,.47,.11,.69-.16,.23-.47,.28-.69,.11l-23.24-16.67c-.23-.16-.28-.47-.11-.69,.16-.23,.47-.28,.69-.11l23.24,16.67Z"/>
      <path class="cls-1" d="M342.77,170.19c-.23,.16-.54,.11-.69-.11-.16-.23-.11-.54,.11-.69l26.24-18.81c.23-.16,.54-.11,.69,.11,.16,.23,.11,.54-.11,.69l-26.24,18.81Z"/>
      <path class="cls-1" d="M344.61,170.29c-.28,0-.5-.23-.5-.5s.23-.5,.5-.5h24.13c.28,0,.5,.23,.5,.5v18.81c0,.28-.23,.5-.5,.5h-26.24c-.28,0-.5-.23-.5-.5s.23-.5,.5-.5h25.74v-17.82h-23.63Z"/>
      <path class="cls-1" d="M369.01,188.19c.23,.16,.28,.47,.11,.69-.16,.23-.47,.28-.69,.11l-23.24-16.67c-.23-.16-.28-.47-.11-.69,.16-.23,.47-.28,.69-.11l23.24,16.67Z"/>
      <path class="cls-1" d="M342.77,189c-.23,.16-.54,.11-.69-.11-.16-.23-.11-.54,.11-.69l26.24-18.81c.23-.16,.54-.11,.69,.11,.16,.23,.11,.54-.11,.69l-26.24,18.81Z"/>
      <path class="cls-1" d="M344.61,189.1c-.28,0-.5-.23-.5-.5s.23-.5,.5-.5h24.13c.28,0,.5,.23,.5,.5v18.81c0,.28-.23,.5-.5,.5h-26.24c-.28,0-.5-.23-.5-.5s.23-.5,.5-.5h25.74v-17.82h-23.63Z"/>
      <path class="cls-15" d="M369.01,207.01c.23,.16,.28,.47,.11,.69-.16,.23-.47,.28-.69,.11l-23.24-16.67c-.23-.16-.28-.47-.11-.69,.16-.23,.47-.28,.69-.11l23.24,16.67Z"/>
      <path class="cls-1" d="M342.77,207.83c-.23,.16-.54,.11-.69-.11-.16-.23-.11-.54,.11-.69l26.24-18.81c.23-.16,.54-.11,.69,.11,.16,.23,.11,.54-.11,.69l-26.24,18.81Z"/>
      <path class="cls-15" d="M344.61,207.92c-.28,0-.5-.23-.5-.5s.23-.5,.5-.5h24.13c.28,0,.5,.23,.5,.5v18.81c0,.28-.23,.5-.5,.5h-26.24c-.28,0-.5-.23-.5-.5s.23-.5,.5-.5h25.74v-17.82h-23.63Z"/>
      <path class="cls-1" d="M369.01,225.82c.23,.16,.28,.47,.11,.69-.16,.23-.47,.28-.69,.11l-23.24-16.67c-.23-.16-.28-.47-.11-.69,.16-.23,.47-.28,.69-.11l23.24,16.67Z"/>
      <path class="cls-1" d="M342.77,226.64c-.23,.16-.54,.11-.69-.11-.16-.23-.11-.54,.11-.69l26.24-18.81c.23-.16,.54-.11,.69,.11,.16,.23,.11,.54-.11,.69l-26.24,18.81Z"/>
      <path class="cls-15" d="M344.61,226.73c-.28,0-.5-.23-.5-.5s.23-.5,.5-.5h24.13c.28,0,.5,.23,.5,.5v18.81c0,.28-.23,.5-.5,.5h-26.24c-.28,0-.5-.23-.5-.5s.23-.5,.5-.5h25.74v-17.82h-23.63Z"/>
      <path class="cls-1" d="M369.01,244.65c.23,.16,.28,.47,.11,.69-.16,.23-.47,.28-.69,.11l-23.24-16.67c-.23-.16-.28-.47-.11-.69,.16-.23,.47-.28,.69-.11l23.24,16.67Z"/>
      <path class="cls-1" d="M342.77,245.45c-.23,.16-.54,.11-.69-.11-.16-.23-.11-.54,.11-.69l26.24-18.81c.23-.16,.54-.11,.69,.11,.16,.23,.11,.54-.11,.69l-26.24,18.81Z"/>
      <path class="cls-15" d="M344.61,245.54c-.28,0-.5-.23-.5-.5s.23-.5,.5-.5h24.13c.28,0,.5,.23,.5,.5v18.81c0,.28-.23,.5-.5,.5h-26.24c-.28,0-.5-.23-.5-.5s.23-.5,.5-.5h25.74v-17.82h-23.63Z"/>
      <path class="cls-1" d="M369.01,263.46c.23,.16,.28,.47,.11,.69-.16,.23-.47,.28-.69,.11l-23.24-16.67c-.23-.16-.28-.47-.11-.69,.16-.23,.47-.28,.69-.11l23.24,16.67Z"/>
      <path class="cls-15" d="M342.77,264.27c-.23,.16-.54,.11-.69-.11-.16-.23-.11-.54,.11-.69l26.24-18.81c.23-.16,.54-.11,.69,.11,.16,.23,.11,.54-.11,.69l-26.24,18.81h0Z"/>
      <path class="cls-15" d="M344.61,264.37c-.28,0-.5-.23-.5-.5s.23-.5,.5-.5h24.13c.28,0,.5,.23,.5,.5v18.81c0,.28-.23,.5-.5,.5h-26.24c-.28,0-.5-.23-.5-.5s.23-.5,.5-.5h25.74v-17.82h-23.63Z"/>
      <path class="cls-15" d="M369.01,282.27c.23,.16,.28,.47,.11,.69-.16,.23-.47,.28-.69,.11l-23.24-16.67c-.23-.16-.28-.47-.11-.69,.16-.23,.47-.28,.69-.11l23.24,16.67Z"/>
      <path class="cls-15" d="M342.77,283.08c-.23,.16-.54,.11-.69-.11-.16-.23-.11-.54,.11-.69l26.24-18.81c.23-.16,.54-.11,.69,.11,.16,.23,.11,.54-.11,.69l-26.24,18.81Z"/>
      <path class="cls-15" d="M344.61,283.18c-.28,0-.5-.23-.5-.5s.23-.5,.5-.5h24.13c.28,0,.5,.23,.5,.5v18.81c0,.28-.23,.5-.5,.5h-26.24c-.28,0-.5-.23-.5-.5s.23-.5,.5-.5h25.74v-17.82h-23.63Z"/>
      <path class="cls-15" d="M369.01,301.08c.23,.16,.28,.47,.11,.69s-.47,.28-.69,.11l-23.24-16.67c-.23-.16-.28-.47-.11-.69,.16-.23,.47-.28,.69-.11l23.24,16.67h0Z"/>
      <path class="cls-15" d="M342.77,301.9c-.23,.16-.54,.11-.69-.11-.16-.23-.11-.54,.11-.69l26.24-18.81c.23-.16,.54-.11,.69,.11,.16,.23,.11,.54-.11,.69l-26.24,18.81Z"/>
      <polygon class="cls-12" points="368.72 301.49 239.34 301.49 239.34 307.07 368.72 307.07 368.72 301.49"/>
      <path class="cls-15" d="M368.23,301.99H239.39v16.25h128.84v-16.25Zm-129.33-1h129.84c.28,0,.5,.23,.5,.5v17.25c0,.28-.23,.5-.5,.5H238.9c-.28,0-.5-.23-.5-.5v-17.25c0-.28,.23-.5,.5-.5Z"/>
      <path class="cls-2" d="M298.4,234.37c-.19-.2-.18-.52,.03-.71s.52-.18,.71,.03c.25,.26,.57,.48,.93,.63,.37,.15,.78,.23,1.21,.23s.85-.08,1.21-.23c.37-.15,.68-.37,.93-.63,.19-.2,.5-.21,.71-.03s.21,.5,.03,.71c-.35,.38-.79,.67-1.29,.87s-1.03,.3-1.58,.3-1.1-.11-1.58-.3c-.49-.2-.93-.49-1.29-.87h-.02Z"/>
      <path class="cls-2" d="M308.42,233.69c.19-.2,.5-.21,.71-.03s.21,.5,.03,.71c-.35,.38-.79,.67-1.29,.87-.49,.2-1.03,.3-1.58,.3s-1.1-.11-1.58-.3c-.49-.2-.93-.49-1.29-.87-.19-.2-.18-.52,.03-.71s.52-.18,.71,.03c.25,.26,.57,.48,.93,.63,.37,.15,.78,.23,1.21,.23s.85-.08,1.21-.23c.37-.15,.68-.37,.93-.63h-.02Z"/>
      <path class="cls-2" d="M308.42,234.37c-.19-.2-.18-.52,.03-.71s.52-.18,.71,.03c.25,.26,.57,.48,.93,.63,.37,.15,.78,.23,1.21,.23s.85-.08,1.21-.23c.37-.15,.68-.37,.93-.63,.19-.2,.5-.21,.71-.03s.21,.5,.03,.71c-.35,.38-.79,.67-1.29,.87-.49,.2-1.03,.3-1.58,.3s-1.1-.11-1.58-.3c-.49-.2-.93-.49-1.29-.87h-.02Z"/>
      <path class="cls-2" d="M292.89,233.69c.19-.2,.5-.21,.71-.03s.21,.5,.03,.71c-.35,.38-.79,.67-1.29,.87s-1.03,.3-1.58,.3-1.1-.11-1.58-.3c-.49-.2-.93-.49-1.29-.87-.19-.2-.18-.52,.03-.71s.52-.18,.71,.03c.25,.26,.57,.48,.93,.63,.37,.15,.78,.23,1.21,.23s.85-.08,1.21-.23c.37-.15,.68-.37,.93-.63h-.02Z"/>
      <path class="cls-4" d="M300.95,313.35c-5.45-14.16-17.77-24.53-32.43-28.44s-30.31-.9-42.09,8.67c4.62-7.82,12.19-13.46,21-15.66-5.72-7.57-8.37-17.02-7.43-26.46,11.08-4.73,26.07-4.48,36.24,2.4,.35-2.3,1.96-4.78,4.82-7.44,3.55-3.72,5.17-6.83,4.9-9.34,0-1.38-.04-3.29-.14-5.74,.25-2.61,.95-5.12,2.09-7.53,2.15-3.84,2.81-6.89,2.03-9.16-.64-1.55-.64-5.43,0-6.88h22.06c.64,1.45,.64,5.32,0,6.88-.78,2.27-.1,5.32,2.03,9.16,1.14,2.41,1.84,4.92,2.09,7.53-.1,2.45-.14,4.37-.14,5.74-.29,2.5,1.35,5.61,4.9,9.34,2.86,2.66,4.47,5.15,4.82,7.44,10.17-6.88,25.16-7.13,36.24-2.4,.93,9.44-1.72,18.89-7.43,26.46,8.81,2.2,16.38,7.84,21,15.66-11.78-9.56-27.43-12.53-42.09-8.62s-27.03,14.23-32.48,28.4h.01Z"/>
      <path class="cls-11" d="M.51,321.16H207.21c11.91-13.87,7.72-37.45,0-45.82-8.21-11.04-23.23-15.87-36.57-13.84-11.61,1.78-21.88,8.48-28.18,18.4-40.11-21.88-90.34-7.85-113.29,31.66-10.59-2.25-21.55,1.43-28.65,9.59h-.01Z"/>
      <path class="cls-11" d="M.51,321.16H100.52c6.28-21.46,32.05-32.84,54.75-23.99,7.22-22.25,29-30.98,49.87-24.33-8.5-9.25-22.21-13.2-34.5-11.33-11.61,1.78-21.88,8.48-28.18,18.4-40.11-21.88-90.34-7.85-113.29,31.66-10.59-2.25-21.55,1.43-28.65,9.59h-.01Z"/>
      <path class="cls-11" d="M45.18,321.16H.51c5.6-6.51,13.75-10.25,22.33-10.25s16.73,3.75,22.33,10.25h.01Z"/>
      <path class="cls-1" d="M203.34,270.27c.21,.18,.24,.49,.06,.71s-.49,.24-.71,.06c-4.43-3.75-9.56-6.44-15.02-7.97-5.45-1.54-11.24-1.92-16.97-1.05s-11.14,2.98-15.89,6.07c-4.74,3.1-8.83,7.2-11.95,12.1-.15,.23-.45,.3-.69,.15-19.92-10.86-42.37-12.81-62.68-7.13s-38.51,18.99-49.92,38.62c-.14,.24-.44,.32-.68,.18s-.32-.44-.18-.68c11.55-19.87,29.95-33.34,50.51-39.08,20.43-5.7,42.98-3.8,63.04,7.02,3.15-4.85,7.26-8.92,12-12.01,4.87-3.18,10.41-5.32,16.28-6.22,5.88-.9,11.8-.5,17.39,1.07s10.85,4.34,15.39,8.18h0v-.02Z"/>
      <path class="cls-15" d="M26.7,310.65c.28,.04,.47,.28,.44,.56-.04,.28-.28,.47-.56,.44-1.55-.19-3.1-.25-4.64-.2s-3.09,.24-4.62,.54c-.26,.05-.53-.13-.58-.39-.05-.26,.13-.53,.39-.58,1.58-.32,3.17-.49,4.78-.56,1.6-.06,3.22,.01,4.81,.2h-.02Z"/>
      <path class="cls-15" d="M14.89,311.53c.26-.08,.54,.09,.62,.35s-.09,.54-.35,.62-.5,.14-.74,.21c-.24,.08-.48,.15-.73,.23-.26,.09-.54-.05-.63-.32s.05-.54,.32-.63c.24-.08,.49-.16,.76-.24,.26-.08,.52-.15,.76-.23h0Z"/>
      <path class="cls-15" d="M9.74,313.48c.25-.11,.54-.01,.67,.23,.11,.25,.01,.54-.23,.67-1.77,.86-3.44,1.89-5.01,3.09-1.55,1.19-2.99,2.54-4.29,4.03-.18,.2-.49,.23-.71,.05-.2-.18-.23-.49-.05-.71,1.34-1.54,2.83-2.93,4.44-4.16,1.62-1.24,3.34-2.31,5.17-3.19h0Z"/>
      <path class="cls-7" d="M295.42,207.78h-4.59c-.3,2.55,.59,5.1,2.44,6.9,1.82-1.8,2.62-4.38,2.16-6.9h-.01Z"/>
      <path class="cls-9" d="M295.42,207.78h-2.16v6.9c1.82-1.8,2.62-4.38,2.16-6.9Z"/>
      <path class="cls-7" d="M298.73,207.78h5.3c.34,5.74-.56,11.49-2.64,16.86-2.15-5.35-3.05-11.12-2.66-16.86h0Z"/>
      <path class="cls-9" d="M301.39,207.78h2.64c.34,5.74-.56,11.49-2.64,16.86v-16.86Z"/>
      <path class="cls-7" d="M311.79,207.78h-4.62c-.08,2.5,.74,4.95,2.32,6.9,1.69-1.88,2.52-4.38,2.3-6.9Z"/>
      <path class="cls-9" d="M311.79,207.78h-2.3v6.89c1.69-1.88,2.52-4.37,2.3-6.89Z"/>
      <path class="cls-5" d="M389.15,200.82c-16.52,.14-24.78,.21-24.78,.21-.3-1.69,.3-3.42,1.59-4.56s3.08-1.53,4.72-1.02c.67-2.02,2.41-3.51,4.52-3.82,2.11-.33,4.21,.57,5.45,2.3,2.08-.49,4.28,0,5.94,1.36,1.67,1.35,2.61,3.38,2.57,5.53h-.01Z"/>
      <path class="cls-16" d="M389.14,200.32c.28,0,.5,.21,.5,.49s-.21,.5-.49,.5l-24.78,.21c-.25,0-.45-.18-.49-.42-.15-.87-.09-1.77,.18-2.59,.26-.82,.72-1.59,1.35-2.22s1.5-1.16,2.47-1.4c.88-.21,1.87-.21,2.91,.08,.26,.08,.42,.34,.35,.61-.08,.26-.34,.42-.61,.35-.87-.24-1.69-.24-2.42-.06-.78,.19-1.46,.59-2.01,1.14s-.9,1.14-1.11,1.82c-.18,.54-.24,1.12-.2,1.7l24.33-.21h.02Z"/>
      <path class="cls-14" d="M372.16,193.93c-.16,.23-.48,.26-.69,.1-.23-.16-.26-.48-.1-.69,.58-.78,1.32-1.39,2.17-1.79s1.79-.62,2.75-.58c.97,.04,1.89,.3,2.71,.77,.72,.4,1.35,.96,1.84,1.64,1.01-.21,2.04-.2,3.04,0,1.1,.24,2.15,.73,3.05,1.46,.9,.73,1.6,1.65,2.07,2.67s.69,2.16,.64,3.32c-.01,.28-.24,.49-.52,.48s-.49-.24-.48-.52c.04-1-.15-1.98-.56-2.86s-1.01-1.68-1.78-2.31c-.78-.63-1.68-1.06-2.62-1.26s-1.93-.19-2.89,.05c-.21,.06-.45,0-.58-.2-.43-.67-1.02-1.22-1.7-1.6s-1.45-.61-2.25-.63c-.81-.03-1.59,.14-2.28,.48-.71,.34-1.32,.85-1.8,1.49l-.03-.03h0Z"/>
      <polygon class="cls-4" points="340.36 113.33 320.76 113.33 320.76 116.94 340.36 116.94 340.36 113.33"/>
      <polygon class="cls-12" points="340.36 113.33 332.54 113.33 332.54 116.94 340.36 116.94 340.36 113.33"/>
      <polygon class="cls-12" points="340.36 113.33 320.76 113.33 320.76 114.95 340.36 114.95 340.36 113.33"/>
      <path class="cls-1" d="M339.85,113.84h-18.59v2.61h18.59v-2.61Zm-19.09-1h19.58c.28,0,.5,.23,.5,.5v3.61c0,.28-.23,.5-.5,.5h-19.58c-.28,0-.5-.23-.5-.5v-3.61c0-.28,.23-.5,.5-.5Z"/>
      <polygon class="cls-4" points="340.36 150.64 320.76 150.64 320.76 154.26 340.36 154.26 340.36 150.64"/>
      <polygon class="cls-12" points="340.36 150.64 332.54 150.64 332.54 154.26 340.36 154.26 340.36 150.64"/>
      <polygon class="cls-12" points="340.36 150.64 320.76 150.64 320.76 152.26 340.36 152.26 340.36 150.64"/>
      <path class="cls-1" d="M339.85,151.15h-18.59v2.61h18.59v-2.61Zm-19.09-1h19.58c.28,0,.5,.23,.5,.5v3.61c0,.28-.23,.5-.5,.5h-19.58c-.28,0-.5-.23-.5-.5v-3.61c0-.28,.23-.5,.5-.5Z"/>
      <polygon class="cls-4" points="340.36 216.47 320.76 216.47 320.76 220.08 340.36 220.08 340.36 216.47"/>
      <polygon class="cls-12" points="340.36 216.47 332.54 216.47 332.54 220.08 340.36 220.08 340.36 216.47"/>
      <polygon class="cls-12" points="340.36 216.47 320.76 216.47 320.76 218.09 340.36 218.09 340.36 216.47"/>
      <path class="cls-1" d="M339.85,216.97h-18.59v2.61h18.59v-2.61Zm-19.09-1h19.58c.28,0,.5,.23,.5,.5v3.61c0,.28-.23,.5-.5,.5h-19.58c-.28,0-.5-.23-.5-.5v-3.61c0-.28,.23-.5,.5-.5Z"/>
      <polygon class="cls-4" points="368.72 301.49 239.34 301.49 239.34 318.74 368.72 318.74 368.72 301.49"/>
      <polygon class="cls-12" points="368.72 301.49 313.93 301.49 313.93 318.74 368.72 318.74 368.72 301.49"/>
      <polygon class="cls-6" points="237.22 301.49 239.34 301.49 239.34 318.74 237.22 318.74 237.22 301.49"/>
      <path class="cls-15" d="M237.22,301h2.12c.28,0,.5,.23,.5,.5v17.25c0,.28-.23,.5-.5,.5h-2.12c-.28,0-.5-.23-.5-.5v-17.25c0-.28,.23-.5,.5-.5Zm1.63,1h-1.12v16.25h1.12v-16.25Z"/>
      <path class="cls-8" d="M506.71,179.05c32.67-.29,48.99-.43,48.99-.43,.18-4.26-1.67-8.37-4.98-11.04-3.32-2.69-7.71-3.63-11.85-2.57-1.89-2.94-5.11-4.77-8.61-4.88-4.98-.16-9.19,3.26-11.05,7.72-3.28-.93-6.8-.11-9.35,2.16-2.54,2.27-3.73,5.69-3.15,9.06h0v-.02Z"/>
      <path class="cls-17" d="M555.7,178.11c.28,0,.5,.21,.5,.49s-.21,.5-.49,.5l-48.99,.43c-.25,0-.45-.18-.49-.42-.29-1.67-.16-3.34,.33-4.9s1.36-3,2.55-4.2l.03-.03c1.25-1.24,2.84-2.2,4.67-2.66,1.67-.43,3.52-.47,5.49,.05,.26,.06,.43,.34,.35,.61-.06,.26-.34,.43-.61,.35-1.79-.47-3.48-.44-5-.05-1.65,.43-3.09,1.29-4.23,2.41l-.03,.03c-1.07,1.07-1.85,2.38-2.31,3.79-.4,1.27-.54,2.65-.37,4.01l48.57-.43h.03v.02Z"/>
      <path class="cls-16" d="M521.75,164.7c-.16,.23-.48,.26-.69,.1-.23-.16-.26-.48-.1-.69,1.1-1.48,2.51-2.62,4.11-3.39s3.39-1.16,5.22-1.1,3.58,.57,5.14,1.45c1.45,.82,2.71,1.97,3.68,3.37,2.03-.47,4.13-.47,6.11-.04,2.11,.45,4.1,1.4,5.83,2.79l.03,.03c1.7,1.39,3.03,3.14,3.91,5.08,.88,1.96,1.32,4.13,1.22,6.33-.01,.28-.24,.49-.52,.48s-.49-.24-.48-.52c.09-2.06-.32-4.06-1.14-5.89-.82-1.82-2.06-3.43-3.63-4.72l-.03-.03c-1.6-1.29-3.46-2.17-5.4-2.6s-3.99-.4-5.97,.1c-.21,.06-.45,0-.57-.2-.91-1.4-2.12-2.54-3.53-3.34-1.41-.79-3.02-1.26-4.68-1.31-1.67-.05-3.29,.3-4.76,1-1.46,.71-2.75,1.75-3.75,3.09h0Z"/>
      <path class="cls-2" d="M395.75,303.18c.19-.2,.5-.21,.71-.03,.2,.19,.21,.5,.03,.71-.35,.38-.79,.67-1.29,.87-.49,.2-1.03,.3-1.58,.3s-1.1-.11-1.58-.3c-.49-.2-.93-.49-1.29-.87-.19-.2-.18-.52,.03-.71s.52-.18,.71,.03c.25,.26,.57,.48,.93,.63,.37,.15,.78,.23,1.21,.23s.85-.08,1.21-.23c.37-.15,.68-.37,.93-.63h-.02Z"/>
      <path class="cls-2" d="M385.73,303.86c-.19-.2-.18-.52,.03-.71s.52-.18,.71,.03c.25,.26,.57,.48,.93,.63,.37,.15,.78,.23,1.21,.23s.85-.08,1.21-.23c.37-.15,.68-.37,.93-.63,.19-.2,.5-.21,.71-.03,.2,.19,.21,.5,.03,.71-.35,.38-.79,.67-1.29,.87-.49,.2-1.03,.3-1.58,.3s-1.1-.11-1.58-.3c-.49-.2-.93-.49-1.29-.87h-.02Z"/>
      <path class="cls-2" d="M483.01,275.23c-.19-.2-.18-.52,.03-.71s.52-.18,.71,.03c.25,.26,.57,.48,.93,.63,.37,.15,.78,.23,1.21,.23s.85-.08,1.21-.23c.37-.15,.68-.37,.93-.63,.19-.2,.5-.21,.71-.03s.21,.5,.03,.71c-.35,.38-.79,.67-1.29,.87-.49,.2-1.03,.3-1.58,.3s-1.1-.11-1.58-.3c-.49-.2-.93-.49-1.29-.87h-.02Z"/>
      <path class="cls-2" d="M493.03,274.55c.19-.2,.5-.21,.71-.03s.21,.5,.03,.71c-.35,.38-.79,.67-1.29,.87-.49,.2-1.03,.3-1.58,.3s-1.1-.11-1.58-.3c-.49-.2-.93-.49-1.29-.87-.19-.2-.18-.52,.03-.71s.52-.18,.71,.03c.25,.26,.57,.48,.93,.63,.37,.15,.78,.23,1.21,.23s.85-.08,1.21-.23c.37-.15,.68-.37,.93-.63h-.02Z"/>
      <path class="cls-2" d="M493.03,275.23c-.19-.2-.18-.52,.03-.71s.52-.18,.71,.03c.25,.26,.57,.48,.93,.63,.37,.15,.78,.23,1.21,.23s.85-.08,1.21-.23c.37-.15,.68-.37,.93-.63,.19-.2,.5-.21,.71-.03s.21,.5,.03,.71c-.35,.38-.79,.67-1.29,.87-.49,.2-1.03,.3-1.58,.3s-1.1-.11-1.58-.3c-.49-.2-.93-.49-1.29-.87h-.02Z"/>
      <path class="cls-2" d="M503.06,275.23c-.19-.2-.18-.52,.03-.71s.52-.18,.71,.03c.25,.26,.57,.48,.93,.63,.37,.15,.78,.23,1.21,.23s.85-.08,1.21-.23c.37-.15,.68-.37,.93-.63,.19-.2,.5-.21,.71-.03s.21,.5,.03,.71c-.35,.38-.79,.67-1.29,.87-.49,.2-1.03,.3-1.58,.3s-1.1-.11-1.58-.3c-.49-.2-.93-.49-1.29-.87h-.02Z"/>
      <path class="cls-2" d="M477.51,274.55c.19-.2,.5-.21,.71-.03s.21,.5,.03,.71c-.35,.38-.79,.67-1.29,.87-.49,.2-1.03,.3-1.58,.3s-1.1-.11-1.58-.3c-.49-.2-.93-.49-1.29-.87-.19-.2-.18-.52,.03-.71s.52-.18,.71,.03c.25,.26,.57,.48,.93,.63,.37,.15,.78,.23,1.21,.23s.85-.08,1.21-.23c.37-.15,.68-.37,.93-.63h-.02Z"/>
      <path class="cls-2" d="M467.49,275.23c-.19-.2-.18-.52,.03-.71s.52-.18,.71,.03c.25,.26,.57,.48,.93,.63,.37,.15,.78,.23,1.21,.23s.85-.08,1.21-.23c.37-.15,.68-.37,.93-.63,.19-.2,.5-.21,.71-.03s.21,.5,.03,.71c-.35,.38-.79,.67-1.29,.87-.49,.2-1.03,.3-1.58,.3s-1.1-.11-1.58-.3c-.49-.2-.93-.49-1.29-.87h-.02Z"/>
      <path class="cls-11" d="M302,313.35c.28,5.21-1.03,7.81-1.03,7.81h-17.82s-37.12-2.06-111.36-6.16c5.63-20.4,23.67-34.91,44.81-36.02,3.05-12.34,11.72-22.54,23.42-27.53-.93,9.44,1.72,18.89,7.43,26.46-8.81,2.2-16.38,7.84-21,15.66,11.78-9.56,27.43-12.91,42.09-9s28.01,14.61,33.46,28.77h0Z"/>
      <path class="cls-11" d="M298.88,313.35c-.28,5.21,2.07,7.81,2.07,7.81h17.82s37.12-2.06,111.36-6.16c-4.59-16.67-17.49-29.41-33.59-34.12-3.57-.04-7.12,.47-10.54,1.51-.18-1.15-.4-2.3-.68-3.42h0c-3.05-12.34-11.72-22.54-23.42-27.53,.93,9.44-1.72,18.89-7.43,26.46,8.81,2.2,16.38,7.84,21,15.66-11.78-9.56-27.43-12.91-42.09-9s-29.05,14.61-34.5,28.77h0v.02Z"/>
      <path class="cls-1" d="M289.39,214.49c-.08-.26,.09-.54,.35-.61,.26-.08,.54,.09,.61,.35,.93,3.48,.01,5.46-1.29,8.24-.74,1.59-1.62,3.44-2.31,6.06-.59,2.22-.48,4.03-.37,5.74,.24,3.72,.45,7.1-5.83,13.37l-.03,.03c-.98,.98-1.96,2.13-2.69,3.33-.58,.96-1,1.96-1.11,2.91-.04,.28-.28,.47-.56,.44-.28-.04-.47-.28-.44-.56,.14-1.12,.59-2.25,1.25-3.31,.77-1.27,1.8-2.49,2.84-3.52l.03-.03c5.97-5.97,5.77-9.12,5.54-12.61-.11-1.8-.24-3.68,.4-6.07,.72-2.67,1.62-4.58,2.37-6.22,1.21-2.59,2.07-4.43,1.22-7.56h0l.02,.02Z"/>
      <path class="cls-15" d="M274.05,251.95c.25,.13,.35,.42,.23,.67s-.42,.35-.67,.23l-.57-.28-.57-.26c-.25-.11-.37-.4-.25-.66s.4-.37,.66-.25l.59,.28,.58,.28h0Z"/>
      <path class="cls-15" d="M311.55,214.24c.08-.26,.34-.43,.61-.35,.26,.08,.43,.34,.35,.61-.85,3.14,.01,4.97,1.22,7.56,.76,1.63,1.65,3.55,2.37,6.22,.63,2.37,.52,4.26,.4,6.07-.23,3.48-.43,6.65,5.54,12.61l.03,.03c.93,.93,1.88,1.96,2.65,3.05,.79,1.14,1.4,2.33,1.58,3.6,.04,.28-.15,.53-.43,.57s-.53-.15-.57-.43c-.15-1.09-.69-2.15-1.4-3.17-.73-1.03-1.64-2.02-2.54-2.91l-.03-.03c-6.28-6.28-6.07-9.65-5.83-13.37,.11-1.73,.23-3.52-.37-5.74-.69-2.6-1.56-4.47-2.31-6.06-1.3-2.78-2.22-4.76-1.29-8.24h0l.02-.02Z"/>
      <path class="cls-15" d="M328.29,252.85c-.25,.13-.54,.03-.67-.23s-.03-.54,.23-.67l.58-.28,.59-.28c.25-.11,.54,0,.66,.25s0,.54-.25,.66l-.57,.26-.57,.28h0Z"/>
      <path class="cls-10" d="M432.31,321.16h39.97c-8.58-14.14-25-21.39-41.08-18.38h0l-.13,.03h-.04l-.2,.05c-.2,.04-.39,.08-.59,.11h-.04l-.13,.04c-.23,.05-.47,.1-.69,.15h-.04c-.26,.07-.52,.14-.78,.2-3.23-8.62-9.77-15.6-18.16-19.39-4.43-2.01-9.17-3.03-13.94-3.08h0c-5.8-.98-14.83,2.28-20.93,6.65,3.52-1.22,7.13-1.96,10.71-2.21,.16-.01,.32-.03,.48-.03h.28c.19-.03,.37-.03,.56-.04h.37c.21-.01,.43-.03,.63-.03h.09c.56-.01,1.11,0,1.67,.01h.06c.2,0,.42,.01,.62,.03h.16c.19,.03,.39,.04,.58,.05l.34,.03h.03c.16,.01,.34,.03,.5,.04l.34,.03c.15,.01,.29,.03,.44,.04s.29,.04,.44,.05l.35,.04c.18,.03,.34,.04,.52,.06l.29,.04c.2,.03,.39,.06,.59,.09l.18,.03c.21,.04,.44,.08,.66,.11l.14,.03c.24,.05,.48,.09,.73,.14h.09c.25,.06,.5,.11,.76,.18h.03c10.02,2.25,19.14,8.19,25.21,17.15,1.67,2.59,3.05,5.4,4.08,8.43-11.18-10.75-27.87-13.39-41.83-6.61,1.88,2.33,3.05,5.17,3.37,8.15-6.59-7.44-15.96-11.82-25.89-12.1s-19.53,3.58-26.52,10.64c-4.45-4.93-11.37-6.83-17.72-4.83-6.35,1.99-10.94,7.49-11.77,14.09h125.26l-.03,.04-.02-.03Zm-264.22,0h126.8c-.83-6.6-5.43-12.1-11.77-14.09-6.35-1.99-13.26-.1-17.72,4.83-6.99-7.07-16.59-10.91-26.52-10.64-9.93,.28-19.31,4.66-25.89,12.1,.32-2.99,1.48-5.82,3.37-8.15-13.96-6.78-30.65-4.14-41.83,6.61,5.88-17.26,23.14-27.97,41.22-25.55,0-4.47,.93-8.9,2.7-13.01-13.32-1.51-26.65,2.95-36.36,12.2-9.72,9.25-14.85,22.32-13.99,35.71h-.01Z"/>
      <path class="cls-11" d="M590.94,321.16h-118.66c-9.27-14.66-26.84-21.82-43.72-17.8-6.42-17.12-25.07-26.31-42.56-20.96-.37-2.4-.96-4.77-1.77-7.05,8.21-11.04,23.23-15.87,36.57-13.84,11.61,1.78,21.88,8.48,28.18,18.4,40.11-21.88,90.34-7.85,113.29,31.66,10.59-2.25,21.55,1.43,28.65,9.59h.02Z"/>
      <path class="cls-11" d="M546.28,321.16h44.67c-5.6-6.51-13.75-10.25-22.33-10.25s-16.73,3.75-22.33,10.25h0Z"/>
      <path class="cls-1" d="M388.74,271.03c-.21,.18-.53,.15-.71-.06s-.15-.53,.06-.71c4.54-3.84,9.8-6.6,15.39-8.18,5.59-1.58,11.52-1.97,17.39-1.07,5.88,.9,11.41,3.04,16.28,6.22,4.74,3.09,8.85,7.17,12,12.01,20.07-10.81,42.62-12.72,63.04-7.02,20.57,5.74,38.98,19.22,50.51,39.08,.14,.24,.05,.54-.18,.68-.24,.14-.54,.05-.68-.18-11.41-19.63-29.6-32.94-49.92-38.62s-42.75-3.73-62.68,7.13c-.24,.15-.54,.08-.69-.15-3.1-4.9-7.2-9.01-11.95-12.1-4.74-3.1-10.14-5.2-15.89-6.07-5.73-.87-11.52-.49-16.97,1.05s-10.59,4.24-15.02,7.97h.01v.02Z"/>
      <path class="cls-15" d="M564.88,311.65c-.28,.04-.52-.16-.56-.44s.16-.52,.44-.56c1.59-.2,3.19-.26,4.81-.2,1.6,.06,3.2,.24,4.78,.56,.26,.05,.44,.32,.39,.58s-.32,.44-.58,.39c-1.53-.3-3.08-.48-4.62-.54-1.54-.05-3.1,.01-4.64,.2h-.02Z"/>
      <path class="cls-15" d="M576.29,312.49c-.26-.08-.42-.35-.35-.62,.08-.26,.35-.42,.62-.35,.24,.06,.49,.14,.76,.23,.26,.08,.52,.16,.76,.24,.26,.09,.4,.37,.32,.63s-.37,.4-.63,.32c-.25-.09-.49-.16-.73-.23-.24-.08-.48-.14-.74-.21h-.01Z"/>
      <path class="cls-15" d="M581.28,314.37c-.25-.11-.35-.42-.23-.67,.11-.25,.42-.35,.67-.23,1.83,.9,3.57,1.97,5.17,3.19,1.62,1.24,3.1,2.62,4.44,4.16,.18,.2,.16,.53-.05,.71-.2,.18-.53,.16-.71-.05-1.3-1.49-2.74-2.84-4.29-4.03-1.55-1.2-3.23-2.23-5.01-3.09h.01Z"/>
      <path class="cls-15" d="M216.13,272.66c.28,.01,.48,.25,.47,.53s-.25,.48-.53,.47c-6.41-.4-12.76,.57-18.64,2.79s-11.29,5.68-15.84,10.22-8,9.96-10.22,15.84-3.19,12.23-2.79,18.64c0,.28-.19,.52-.47,.53s-.52-.19-.53-.47c-.42-6.55,.58-13.05,2.85-19.05,2.27-6.01,5.8-11.55,10.45-16.19,4.64-4.64,10.18-8.18,16.19-10.45s12.5-3.27,19.05-2.85h0Z"/>
      <path class="cls-15" d="M271.02,250.6c.25,.1,.38,.39,.28,.64s-.39,.38-.64,.28c-5.17-2.06-10.66-2.98-16.14-2.8-5.44,.19-10.86,1.49-15.9,3.9-5.54,2.65-10.31,6.5-14.04,11.19-3.72,4.68-6.4,10.21-7.73,16.2-.06,.26-.33,.44-.59,.38s-.44-.33-.38-.59c1.36-6.14,4.11-11.81,7.92-16.6,3.81-4.81,8.71-8.74,14.38-11.47,5.16-2.47,10.71-3.8,16.29-4,5.6-.19,11.23,.76,16.53,2.86h.02Z"/>
      <path class="cls-15" d="M380.16,285.35c-.24,.13-.54,.04-.67-.21-.13-.24-.04-.54,.21-.67,4.47-2.36,9.32-3.71,14.26-4.01,4.92-.3,9.92,.43,14.64,2.22s8.95,4.56,12.43,8.05c3.38,3.39,6.07,7.48,7.85,12.04,8.42-2.07,17.03-1.31,24.68,1.79,7.79,3.17,14.57,8.78,19.15,16.34,.14,.24,.06,.54-.16,.68-.24,.14-.54,.06-.68-.16-4.47-7.37-11.09-12.83-18.67-15.92-7.6-3.09-16.15-3.8-24.49-1.65-.24,.06-.5-.06-.59-.3-1.73-4.59-4.39-8.71-7.79-12.1-3.38-3.39-7.48-6.08-12.08-7.82-4.59-1.74-9.44-2.45-14.23-2.16-4.78,.3-9.51,1.6-13.85,3.9h0v-.02Z"/>
      <path class="cls-1" d="M331.26,251.52c-.25,.1-.54-.03-.64-.28s.03-.54,.28-.64c5.3-2.11,10.93-3.05,16.53-2.86,5.58,.19,11.13,1.53,16.29,4,5.68,2.71,10.57,6.66,14.38,11.47,3.81,4.79,6.56,10.46,7.92,16.6,.06,.26-.11,.53-.38,.59s-.53-.11-.59-.38c-1.34-5.99-4.01-11.52-7.73-16.2-3.72-4.68-8.5-8.54-14.04-11.19-5.03-2.41-10.45-3.71-15.9-3.9-5.46-.19-10.96,.74-16.14,2.8h.02Z"/>
      <path class="cls-15" d="M215.97,304.88c.18-.21,.49-.25,.71-.08s.25,.49,.08,.71c-.64,.81-1.21,1.67-1.68,2.57s-.85,1.87-1.11,2.86c-.08,.26-.35,.42-.62,.35-.26-.08-.42-.35-.35-.62,.29-1.06,.69-2.08,1.19-3.05s1.1-1.89,1.78-2.75h0Z"/>
      <path class="cls-15" d="M212.59,312.63c.04-.28,.3-.45,.57-.42,.28,.04,.45,.3,.42,.57-.04,.2-.06,.4-.08,.61-.03,.28-.28,.47-.54,.44-.28-.03-.47-.28-.44-.54,.03-.23,.05-.44,.09-.67h-.02Z"/>
      <path class="cls-15" d="M226.86,293.83c-.14,.24-.44,.32-.68,.18-.24-.14-.32-.44-.18-.68,1.51-2.52,3.32-4.85,5.38-6.9,2.06-2.06,4.38-3.86,6.9-5.38,.24-.14,.54-.06,.68,.18s.06,.54-.18,.68c-2.45,1.46-4.69,3.22-6.7,5.22s-3.76,4.25-5.22,6.7h0Z"/>
      <path class="cls-15" d="M240.94,280.81c-.25,.13-.54,.01-.67-.23-.13-.25-.01-.54,.23-.67,.54-.26,1.09-.52,1.62-.74,.54-.24,1.1-.45,1.65-.66,.25-.1,.54,.04,.64,.3,.1,.25-.04,.54-.3,.64-.54,.2-1.07,.42-1.6,.63-.54,.23-1.06,.47-1.56,.72h-.01Z"/>
      <path class="cls-15" d="M247.14,278.5c-.26,.06-.54-.09-.61-.35-.06-.26,.09-.54,.35-.61l.42-.11c.26-.06,.54,.1,.61,.37,.06,.26-.1,.54-.37,.61l-.42,.1h.02Z"/>
      <path class="cls-15" d="M216.26,286.26c0,.28-.23,.49-.49,.49s-.49-.23-.49-.49c0-.4,0-.81,.03-1.2,0-.42,.04-.82,.06-1.2,.03-.28,.26-.48,.53-.47,.28,.03,.48,.26,.47,.53-.03,.4-.05,.79-.06,1.16,0,.39-.03,.78-.03,1.16h0v.02Z"/>
      <path class="cls-5" d="M56.64,86.14c-21.94,.19-32.92,.29-32.92,.29-.4-2.25,.39-4.54,2.11-6.06,1.7-1.51,4.09-2.02,6.26-1.35,.88-2.69,3.19-4.66,5.99-5.08s5.6,.74,7.24,3.05c2.76-.64,5.68,.03,7.9,1.8,2.21,1.79,3.47,4.5,3.42,7.34h0Z"/>
      <path class="cls-16" d="M56.64,85.71c.24,0,.43,.19,.43,.42s-.19,.43-.42,.43l-32.92,.29c-.21,0-.39-.15-.43-.35-.19-1.12-.11-2.27,.23-3.33s.92-2.04,1.74-2.85c.85-.85,1.93-1.49,3.18-1.79,1.14-.28,2.41-.28,3.76,.09,.23,.06,.37,.29,.3,.52s-.29,.37-.52,.3c-1.2-.33-2.33-.33-3.33-.09-1.09,.26-2.03,.82-2.78,1.56-.71,.71-1.22,1.58-1.53,2.51-.26,.82-.35,1.7-.25,2.57l32.54-.29h0Z"/>
      <path class="cls-14" d="M33.91,76.85c-.14,.19-.4,.23-.59,.09s-.23-.4-.09-.59c.74-1,1.7-1.79,2.8-2.31,1.09-.53,2.31-.79,3.55-.74,1.25,.04,2.44,.39,3.5,.98,.97,.54,1.82,1.31,2.47,2.23,1.36-.3,2.75-.3,4.09-.01,1.43,.32,2.79,.95,3.95,1.89l.03,.03c1.15,.95,2.06,2.12,2.65,3.44,.61,1.32,.9,2.8,.83,4.3-.01,.24-.2,.42-.44,.4s-.42-.2-.4-.44c.06-1.36-.21-2.7-.76-3.91-.54-1.2-1.36-2.28-2.41-3.14h-.03c-1.06-.87-2.3-1.45-3.6-1.74-1.29-.28-2.65-.26-3.96,.06-.18,.06-.38-.01-.49-.18-.59-.93-1.4-1.68-2.33-2.21s-1.99-.83-3.1-.87c-1.11-.04-2.18,.2-3.15,.67s-1.83,1.16-2.49,2.06h-.03Z"/>
      <polygon class="cls-4" points="317.78 200 317.78 198.79 315.42 189.23 315.33 82.94 313.83 82.94 313.83 50.5 309.25 33.4 309.25 22.56 306.21 17.45 305.91 14.4 305.4 12.14 304.34 10.84 302.51 10.04 299.94 9.94 298.07 11.67 297.3 14.4 297.3 17.45 294.26 22.56 294.26 33.4 289.47 50.71 289.47 82.72 288.18 82.94 288.18 119.73 288.14 189.23 285.78 198.79 285.78 200 317.78 200"/>
      <polygon class="cls-3" points="315.25 87.74 305.15 87.74 305.15 93.38 315.25 93.38 315.25 87.74"/>
      <polygon class="cls-12" points="309.24 50.5 309.24 55.96 313.83 55.96 313.83 61.18 307.74 61.18 307.74 75.81 313.83 75.81 313.83 82.94 299.86 82.94 299.86 93.38 304.91 93.38 304.91 87.74 315.25 87.74 315.25 93.6 304.8 93.6 304.8 117.03 315.36 117.03 315.36 82.94 313.83 82.94 313.83 50.48 309.25 33.4 304.66 33.4 309.24 50.5"/>
      <polygon class="cls-12" points="301.74 17.45 301.74 10.03 302.43 9.94 303.26 9.94 305 11.15 306.21 13.7 306.03 17.45 309.25 22.35 309.25 33.4 304.9 33.4 304.9 25.25 309.13 25.25 309.13 22.56 304.79 22.56 301.74 17.45"/>
      <polygon class="cls-12" points="310.74 55.96 289.47 55.96 289.47 61.18 313.53 61.18 313.83 61.18 313.83 55.96 310.74 55.96"/>
      <polygon class="cls-3" points="313.83 75.81 289.68 75.81 289.68 82.94 313.83 82.94 313.83 75.81"/>
      <polygon class="cls-12" points="288.18 144.21 315.33 144.21 315.33 146.34 288.18 146.34 288.18 144.21"/>
      <polygon class="cls-12" points="288.18 82.68 315.33 82.68 315.33 84.8 288.18 84.8 288.18 82.68"/>
      <polygon class="cls-12" points="288.18 93.38 315.33 93.38 315.33 95.5 288.18 95.5 288.18 93.38"/>
      <polygon class="cls-12" points="289.68 50.5 313.83 50.5 313.83 52.62 289.68 52.62 289.68 50.5"/>
      <path class="cls-15" d="M291.99,116.52c.28,0,.5,.23,.5,.5s-.23,.5-.5,.5h-.81c-.28,0-.5-.23-.5-.5s.23-.5,.5-.5h.81Z"/>
      <polygon class="cls-12" points="289.68 61.18 313.83 61.18 313.83 63.3 289.68 63.3 289.68 61.18"/>
      <path class="cls-15" d="M301.25,82.94c0-.28,.23-.5,.5-.5s.5,.23,.5,.5v10.45c0,.28-.23,.5-.5,.5s-.5-.23-.5-.5v-10.45Z"/>
      <path class="cls-1" d="M305.83,82.94c0-.28,.23-.5,.5-.5s.5,.23,.5,.5v4.81c0,.28-.23,.5-.5,.5s-.5-.23-.5-.5v-4.81Z"/>
      <path class="cls-1" d="M310.4,82.94c0-.28,.23-.5,.5-.5s.5,.23,.5,.5v4.81c0,.28-.23,.5-.5,.5s-.5-.23-.5-.5v-4.81Z"/>
      <path class="cls-1" d="M301.25,82.94c0-.28,.23-.5,.5-.5s.5,.23,.5,.5v10.45c0,.28-.23,.5-.5,.5s-.5-.23-.5-.5v-10.45Z"/>
      <path class="cls-1" d="M296.68,82.94c0-.28,.23-.5,.5-.5s.5,.23,.5,.5v10.45c0,.28-.23,.5-.5,.5s-.5-.23-.5-.5v-10.45Z"/>
      <polygon class="cls-12" points="301.3 144.21 315.33 144.21 315.33 200 301.3 200 301.3 144.21"/>
      <path class="cls-1" d="M292.1,82.94c0-.28,.23-.5,.5-.5s.5,.23,.5,.5v10.45c0,.28-.23,.5-.5,.5s-.5-.23-.5-.5v-10.45Z"/>
      <path class="cls-15" d="M313.42,75.32c.28,0,.5,.23,.5,.5s-.23,.5-.5,.5h-21.2c-.28,0-.5-.23-.5-.5s.23-.5,.5-.5h21.2Z"/>
      <path class="cls-1" d="M313.83,60.68c.28,0,.5,.23,.5,.5s-.23,.5-.5,.5h-24.15c-.28,0-.5-.23-.5-.5s.23-.5,.5-.5h24.15Z"/>
      <path class="cls-1" d="M305.32,55.96c0-.28,.23-.5,.5-.5s.5,.23,.5,.5v4.81c0,.28-.23,.5-.5,.5s-.5-.23-.5-.5v-4.81Z"/>
      <path class="cls-1" d="M309.38,55.96c0-.28,.23-.5,.5-.5s.5,.23,.5,.5v4.81c0,.28-.23,.5-.5,.5s-.5-.23-.5-.5v-4.81Z"/>
      <path class="cls-1" d="M301.25,55.96c0-.28,.23-.5,.5-.5s.5,.23,.5,.5v5.22c0,.28-.23,.5-.5,.5s-.5-.23-.5-.5v-5.22Z"/>
      <path class="cls-1" d="M297.2,55.96c0-.28,.23-.5,.5-.5s.5,.23,.5,.5v5.22c0,.28-.23,.5-.5,.5s-.5-.23-.5-.5v-5.22Z"/>
      <path class="cls-1" d="M293.14,55.96c0-.28,.23-.5,.5-.5s.5,.23,.5,.5v5.22c0,.28-.23,.5-.5,.5s-.5-.23-.5-.5v-5.22Z"/>
      <path class="cls-15" d="M315.33,143.72c.28,0,.5,.23,.5,.5s-.23,.5-.5,.5h-24.15c-.28,0-.5-.23-.5-.5s.23-.5,.5-.5h24.15Z"/>
      <polygon class="cls-3" points="301.76 30.01 294.26 30.01 294.26 33.4 301.76 33.4 301.76 30.01"/>
      <polygon class="cls-3" points="309.25 22.56 294.26 22.56 294.26 25.25 309.25 25.25 309.25 22.56"/>
      <polygon class="cls-12" points="293.97 33.4 308.08 33.4 308.08 35.52 293.97 35.52 293.97 33.4"/>
      <polygon class="cls-12" points="293.97 25.25 308.08 25.25 308.08 27.37 293.97 27.37 293.97 25.25"/>
      <polygon class="cls-12" points="297.23 17.56 305.06 17.56 305.06 19.68 295.71 19.68 297.23 17.56"/>
      <path class="cls-15" d="M309.74,31.03c0,.28-.23,.5-.5,.5s-.5-.23-.5-.5v-.05c0-.28,.23-.5,.5-.5s.5,.23,.5,.5v.05Z"/>
      <polygon class="cls-3" points="315.33 117.03 308.73 117.03 308.73 119.73 315.33 119.73 315.33 117.03"/>
      <polygon class="cls-3" points="308.55 119.73 301.76 119.73 301.76 144.21 308.55 144.21 308.55 119.73"/>
      <path class="cls-1" d="M313.19,184.11c.28,0,.5,.23,.5,.5s-.23,.5-.5,.5h-25.01c-.28,0-.5-.23-.5-.5s.23-.5,.5-.5h25.01Z"/>
      <polygon class="cls-3" points="294.97 119.73 288.18 119.73 288.18 144.21 294.97 144.21 294.97 119.73"/>
      <polygon class="cls-3" points="301.76 117.03 294.97 117.03 294.97 119.73 301.76 119.73 301.76 117.03"/>
      <path class="cls-15" d="M309.74,29.13c0,.28-.23,.5-.5,.5s-.5-.23-.5-.5v-.97c0-.28,.23-.5,.5-.5s.5,.23,.5,.5v.97Z"/>
      <path class="cls-15" d="M294.77,33.4c0,.28-.23,.5-.5,.5s-.5-.23-.5-.5v-8.15c0-.28,.23-.5,.5-.5h14.99c.28,0,.5,.23,.5,.5v2.93c0,.28-.23,.5-.5,.5s-.5-.23-.5-.5v-2.42h-13.99v7.66h.01v-.02Z"/>
      <path class="cls-15" d="M301.76,10.45c-.28,0-.5-.23-.5-.5s.23-.5,.5-.5c1.5,0,2.74,.49,3.6,1.35,.87,.87,1.35,2.11,1.35,3.6v2.91l2.97,4.98c.05,.08,.08,.16,.08,.25v2.69c0,.28-.23,.5-.5,.5s-.5-.23-.5-.5v-2.56l-2.94-4.95c-.06-.09-.1-.19-.1-.3v-3.04c0-1.22-.38-2.22-1.06-2.89-.68-.68-1.68-1.06-2.89-1.06v.03h0Z"/>
      <path class="cls-15" d="M301.76,9.45c.28,0,.5,.23,.5,.5s-.23,.5-.5,.5c-1.22,0-2.22,.38-2.89,1.06-.68,.68-1.06,1.68-1.06,2.89v3.04c0,.11-.04,.21-.1,.3l-2.94,4.95v2.56c0,.28-.23,.5-.5,.5s-.5-.23-.5-.5v-2.69c0-.09,.03-.18,.08-.25l2.97-4.98v-2.91c0-1.5,.49-2.74,1.35-3.6,.87-.87,2.11-1.35,3.6-1.35v-.03h0Z"/>
      <path class="cls-15" d="M301.25,.5c0-.28,.23-.5,.5-.5s.5,.23,.5,.5v.05c0,.28-.23,.5-.5,.5s-.5-.23-.5-.5c0,0,0-.05,0-.05Z"/>
      <path class="cls-15" d="M301.25,2.57c0-.28,.23-.5,.5-.5s.5,.23,.5,.5v.97c0,.28-.23,.5-.5,.5s-.5-.23-.5-.5v-.97Z"/>
      <path class="cls-15" d="M301.25,5.46c0-.28,.23-.5,.5-.5s.5,.23,.5,.5v4.48c0,.28-.23,.5-.5,.5s-.5-.23-.5-.5V5.46Z"/>
      <path class="cls-15" d="M302.26,31.03c0,.28-.23,.5-.5,.5s-.5-.23-.5-.5v-.52h-6.99c-.28,0-.5-.23-.5-.5s.23-.5,.5-.5h7.49c.28,0,.5,.23,.5,.5v1.02h0Z"/>
      <polygon class="cls-3" points="315.33 171.74 313.9 171.74 311.98 184.61 313.9 200 317.78 200 317.78 198.64 315.35 189.15 315.41 172.01 315.33 171.74"/>
      <polygon class="cls-3" points="288.18 171.74 289.62 171.74 291.54 184.61 289.62 200 285.73 200 285.73 198.64 288.17 189.15 288.1 172.01 288.18 171.74"/>
      <polygon class="cls-3" points="306.8 184.61 304.97 199.83 304.77 199.93 301.3 192.23 297.92 199.74 295.97 184.61 297.81 171.74 300.48 171.74 304.8 171.74 306.8 184.61"/>
      <path class="cls-15" d="M309.13,22.06c.28,0,.5,.23,.5,.5s-.23,.5-.5,.5h-12.31c-.28,0-.5-.23-.5-.5s.23-.5,.5-.5h12.31Z"/>
      <path class="cls-15" d="M306.21,16.95c.28,0,.5,.23,.5,.5s-.23,.5-.5,.5h-8.91c-.28,0-.5-.23-.5-.5s.23-.5,.5-.5h8.91Z"/>
      <path class="cls-1" d="M311.3,49.99c.28,0,.5,.23,.5,.5s-.23,.5-.5,.5h-21.61c-.28,0-.5-.23-.5-.5s.23-.5,.5-.5h21.61Z"/>
      <path class="cls-15" d="M308.04,120.23h-5.79v23.48h5.79v-23.48Zm-6.3-1h6.79c.28,0,.5,.23,.5,.5v24.48c0,.28-.23,.5-.5,.5h-6.79c-.28,0-.5-.23-.5-.5v-24.48c0-.28,.23-.5,.5-.5h0Z"/>
      <path class="cls-15" d="M309.05,119.24h5.79v-1.7h-5.79v1.7Zm6.3,1h-6.79c-.28,0-.5-.23-.5-.5v-2.7c0-.28,.23-.5,.5-.5h6.79c.28,0,.5,.23,.5,.5v2.7c0,.28-.23,.5-.5,.5Z"/>
      <path class="cls-15" d="M295.46,119.24h5.79v-1.7h-5.79v1.7Zm6.3,1h-6.79c-.28,0-.5-.23-.5-.5v-2.7c0-.28,.23-.5,.5-.5h6.79c.28,0,.5,.23,.5,.5v2.7c0,.28-.23,.5-.5,.5Z"/>
      <path class="cls-15" d="M294.46,120.23h-5.79v23.48h5.79v-23.48Zm-6.3-1h6.79c.28,0,.5,.23,.5,.5v24.48c0,.28-.23,.5-.5,.5h-6.79c-.28,0-.5-.23-.5-.5v-24.48c0-.28,.23-.5,.5-.5Z"/>
      <path class="cls-15" d="M314.84,184.61c0-.28,.21-.5,.49-.5s.5,.21,.5,.49l.09,4.57,2.35,9.51s.01,.08,.01,.11v1.21c0,.28-.23,.5-.5,.5h-15.95c-.28,0-.5-.23-.5-.5s.23-.5,.5-.5h15.44v-.66l-2.35-9.5s-.01-.08-.01-.11l-.09-4.63h.02Z"/>
      <path class="cls-15" d="M287.68,184.46c0-.28,.23-.49,.5-.49s.49,.23,.49,.5l-.04,4.77s0,.08-.01,.11l-2.35,9.5v.66h15.56c.28,0,.5,.23,.5,.5s-.23,.5-.5,.5h-16.06c-.28,0-.5-.23-.5-.5v-1.21s0-.08,.01-.11l2.35-9.5,.04-4.71v-.03h.01Z"/>
      <polygon class="cls-13" points="289.28 204.31 297.25 204.31 297.25 207.78 289.28 207.78 289.28 204.31"/>
      <polygon class="cls-6" points="289.28 204.6 297.35 204.6 297.11 203.7 295.94 202.89 290.75 202.89 290.24 203.15 289.28 204.03 289.28 204.6"/>
      <polygon class="cls-13" points="297.35 204.31 305.32 204.31 305.32 207.78 297.35 207.78 297.35 204.31"/>
      <polygon class="cls-6" points="297.35 204.6 305.43 204.6 305.19 203.7 304.02 202.89 298.83 202.89 298.31 203.15 297.35 204.03 297.35 204.6"/>
      <polygon class="cls-13" points="305.45 204.31 313.42 204.31 313.42 207.78 305.45 207.78 305.45 204.31"/>
      <polygon class="cls-6" points="305.45 204.6 313.52 204.6 313.28 203.7 312.12 202.89 306.93 202.89 306.4 203.15 305.45 204.03 305.45 204.6"/>
      <path class="cls-15" d="M312.47,184.67c-.04,.28-.29,.47-.57,.42-.28-.04-.47-.29-.42-.57l1.92-12.86c.04-.25,.25-.43,.49-.43h1.44c.28,0,.5,.23,.5,.5s-.23,.5-.5,.5h-1.01l-1.85,12.43h0Z"/>
      <path class="cls-15" d="M307.3,184.53c.04,.28-.14,.53-.42,.57s-.53-.14-.57-.42l-1.94-12.44h-3.9c-.28,0-.5-.23-.5-.5s.23-.5,.5-.5h4.33c.24,0,.45,.18,.49,.43l2.01,12.86h0Z"/>
      <path class="cls-15" d="M296.47,184.67c-.04,.28-.29,.47-.57,.43s-.47-.29-.43-.57l1.83-12.86c.04-.25,.25-.43,.49-.43h3.95c.28,0,.5,.23,.5,.5s-.23,.5-.5,.5h-3.52l-1.77,12.43h.02Z"/>
      <path class="cls-15" d="M292.03,184.53c.04,.28-.15,.53-.42,.57-.28,.04-.53-.15-.57-.42l-1.85-12.43h-1.01c-.28,0-.5-.23-.5-.5s.23-.5,.5-.5h1.44c.24,0,.45,.18,.49,.43l1.92,12.86h0Z"/>
      <path class="cls-15" d="M306.31,184.55c.04-.28,.29-.47,.56-.43,.28,.04,.47,.29,.43,.56l-2.01,15.39c-.04,.28-.29,.47-.56,.43-.28-.04-.47-.29-.43-.56l2.01-15.39Z"/>
      <path class="cls-15" d="M311.49,184.66c-.04-.28,.16-.52,.44-.56s.52,.16,.56,.44l1.87,14.96h1c.28,0,.5,.23,.5,.5s-.23,.5-.5,.5h-1.44c-.25,0-.47-.19-.49-.44l-1.92-15.39v-.03l-.02,.02Z"/>
      <path class="cls-15" d="M295.47,184.66c-.04-.28,.16-.52,.44-.56s.52,.16,.56,.44l1.83,15.39c.04,.28-.16,.52-.44,.56s-.52-.16-.56-.44l-1.83-15.39Z"/>
      <path class="cls-15" d="M291.03,184.55c.04-.28,.28-.47,.56-.44,.28,.04,.47,.28,.44,.56l-1.92,15.39c-.03,.25-.25,.44-.49,.44h-1.44c-.28,0-.5-.23-.5-.5s.23-.5,.5-.5h1l1.87-14.96v.03l-.02-.02Z"/>
      <path class="cls-15" d="M305.27,199.8c.11,.25,0,.54-.25,.66-.25,.11-.54,0-.66-.25l-3.5-7.77c-.11-.25,0-.54,.25-.66,.25-.11,.54,0,.66,.25l3.5,7.77Z"/>
      <path class="cls-15" d="M298.26,200.21c-.11,.25-.4,.37-.66,.25s-.37-.4-.25-.66l3.5-7.77c.11-.25,.4-.37,.66-.25s.37,.4,.25,.66l-3.5,7.77Z"/>
      <path class="cls-15" d="M303.51,207.81c-.03-.28,.19-.52,.45-.54,.28-.03,.52,.19,.54,.45l.05,.63c.01,.28-.19,.52-.47,.53s-.52-.19-.53-.47l-.05-.62h0v.02Z"/>
      <path class="cls-1" d="M303.55,213.48c.03-.28,.25-.48,.53-.47,.28,.03,.48,.25,.47,.53-.14,1.96-.44,3.9-.9,5.8-.45,1.89-1.05,3.77-1.8,5.59-.1,.25-.39,.38-.66,.28-.13-.05-.23-.15-.28-.28-1.11-2.75-1.89-5.6-2.35-8.52-.44-2.86-.56-5.78-.32-8.69,.03-.28,.26-.48,.54-.45s.48,.26,.45,.54c-.24,2.84-.13,5.68,.3,8.45,.38,2.41,.98,4.79,1.83,7.1,.52-1.39,.95-2.81,1.29-4.25,.44-1.85,.73-3.75,.87-5.65h.01l.02,.02Z"/>
      <path class="cls-15" d="M303.64,210.87c0-.28,.23-.5,.49-.5s.5,.23,.5,.49v.86c0,.28-.23,.49-.5,.49s-.49-.23-.49-.5v-.83h0Z"/>
      <path class="cls-1" d="M309.87,214.5c.18,.21,.14,.53-.06,.71-.21,.18-.53,.14-.71-.06-.97-1.17-1.67-2.4-2.06-3.66-.39-1.25-.49-2.51-.28-3.79,.05-.28,.3-.45,.58-.4s.45,.3,.4,.58c-.19,1.11-.1,2.22,.24,3.32,.35,1.14,1,2.25,1.88,3.32h0v-.02Z"/>
      <path class="cls-15" d="M309.87,215.13c-.18,.21-.49,.24-.71,.06-.21-.18-.24-.49-.06-.71,.88-1.07,1.51-2.18,1.88-3.32,.34-1.1,.43-2.21,.24-3.32-.05-.28,.14-.53,.4-.58,.28-.05,.53,.14,.58,.4,.21,1.27,.11,2.55-.28,3.79-.39,1.25-1.09,2.47-2.06,3.66h0v.02Z"/>
      <path class="cls-1" d="M293.58,214.5c.18,.21,.14,.53-.06,.71-.21,.18-.53,.14-.71-.06-.97-1.17-1.67-2.4-2.06-3.66-.39-1.25-.49-2.51-.28-3.79,.05-.28,.3-.45,.58-.4s.45,.3,.4,.58c-.19,1.11-.1,2.22,.24,3.32,.35,1.14,1,2.25,1.88,3.32h0v-.02Z"/>
      <path class="cls-1" d="M293.58,215.13c-.18,.21-.49,.24-.71,.06s-.24-.49-.06-.71c.88-1.07,1.51-2.18,1.88-3.32,.34-1.1,.43-2.21,.24-3.32-.05-.28,.14-.53,.4-.58,.28-.05,.53,.14,.58,.4,.21,1.27,.11,2.55-.28,3.79-.39,1.25-1.09,2.47-2.06,3.66h0v.02Z"/>
      <path class="cls-15" d="M315.84,184.61c0,.28-.23,.5-.5,.5s-.5-.23-.5-.5V117.53h-20.57c-.28,0-.5-.23-.5-.5s.23-.5,.5-.5h21.07c.28,0,.5,.23,.5,.5v67.58Z"/>
      <path class="cls-15" d="M287.68,117.03c0-.28,.23-.5,.5-.5s.5,.23,.5,.5v67.58c0,.28-.23,.5-.5,.5s-.5-.23-.5-.5V117.03Z"/>
      <path class="cls-15" d="M288.67,117.03c0,.28-.23,.5-.5,.5s-.5-.23-.5-.5v-34.09c0-.28,.23-.5,.5-.5h27.17c.28,0,.5,.23,.5,.5v31.51c0,.28-.23,.5-.5,.5s-.5-.23-.5-.5v-31h-26.16v33.59h-.01Z"/>
      <path class="cls-15" d="M315.33,92.89c.28,0,.5,.23,.5,.5s-.23,.5-.5,.5h-24.15c-.28,0-.5-.23-.5-.5s.23-.5,.5-.5h24.15Z"/>
      <path class="cls-15" d="M314.84,88.25h-9.43v4.64h9.43v-4.64Zm-9.92-1h10.42c.28,0,.5,.23,.5,.5v5.64c0,.28-.23,.5-.5,.5h-10.42c-.28,0-.5-.23-.5-.5v-5.64c0-.28,.23-.5,.5-.5Z"/>
      <path class="cls-15" d="M290.19,82.94c0,.28-.23,.5-.5,.5s-.5-.23-.5-.5v-26.99c0-.28,.23-.5,.5-.5h24.15c.28,0,.5,.23,.5,.5v24.33c0,.28-.23,.5-.5,.5s-.5-.23-.5-.5v-23.83h-23.15v26.48h0Z"/>
      <path class="cls-15" d="M290.19,55.96c0,.28-.23,.5-.5,.5s-.5-.23-.5-.5v-5.46s.01-.1,.03-.15l4.58-17.07c.06-.23,.26-.37,.48-.37h7.49c.28,0,.5,.23,.5,.5s-.23,.5-.5,.5h-7.12l-4.47,16.66v5.4h.01Z"/>
      <path class="cls-15" d="M314.34,55.96c0,.28-.23,.5-.5,.5s-.5-.23-.5-.5v-5.4l-4.47-16.66h-7.12c-.28,0-.5-.23-.5-.5s.23-.5,.5-.5h7.49c.21,0,.43,.15,.48,.37l4.58,17.07s.03,.1,.03,.15v5.46h.01Z"/>
      <path class="cls-15" d="M289.34,210.25c.06,.26-.1,.54-.37,.61-.26,.06-.54-.1-.61-.37-.01-.08-.03-.14-.04-.2v-.21c.03-.28,.26-.48,.54-.45s.48,.26,.45,.54v.08h.01s.02,0,.02,0Z"/>
      <path class="cls-15" d="M301.81,189.97c0,.28-.23,.5-.5,.5s-.5-.23-.5-.5v-16.1c0-.28,.23-.5,.5-.5s.5,.23,.5,.5v16.1Z"/>
      <polygon class="cls-6" points="312.28 200 306.64 200 306.64 202.89 312.28 202.89 312.28 200"/>
      <path class="cls-15" d="M311.78,200.51h-4.63v1.88h4.63v-1.88Zm-5.14-1h5.63c.28,0,.5,.23,.5,.5v2.89c0,.28-.23,.5-.5,.5h-5.63c-.28,0-.5-.23-.5-.5v-2.89c0-.28,.23-.5,.5-.5Z"/>
      <path class="cls-15" d="M311.94,203.26c-.2-.19-.21-.5-.03-.71,.19-.2,.5-.21,.71-.03l1.22,1.14c.1,.1,.16,.23,.16,.37v3.75c0,.28-.23,.5-.5,.5h-4.04c-.28,0-.5-.23-.5-.5s.23-.5,.5-.5h3.53v-3.03l-1.06-1h.01Z"/>
      <path class="cls-15" d="M306.3,202.53c.2-.19,.52-.18,.71,.03s.18,.52-.03,.71l-1.06,1v3.03h3.53c.28,0,.5,.23,.5,.5s-.23,.5-.5,.5h-4.04c-.28,0-.5-.23-.5-.5v-3.75c0-.14,.05-.26,.16-.37l1.22-1.14h.01Z"/>
      <path class="cls-15" d="M313.24,204.09c.28,0,.5,.23,.5,.5s-.23,.5-.5,.5h-5.4c-.28,0-.5-.23-.5-.5s.23-.5,.5-.5h5.4Z"/>
      <polygon class="cls-6" points="304.21 200 298.58 200 298.58 202.89 304.21 202.89 304.21 200"/>
      <path class="cls-15" d="M303.7,200.51h-4.63v1.88h4.63v-1.88Zm-5.14-1h5.63c.28,0,.5,.23,.5,.5v2.89c0,.28-.23,.5-.5,.5h-5.63c-.28,0-.5-.23-.5-.5v-2.89c0-.28,.23-.5,.5-.5h0Z"/>
      <path class="cls-15" d="M303.86,203.26c-.2-.19-.21-.5-.03-.71,.19-.2,.5-.21,.71-.03l1.22,1.14c.1,.1,.16,.23,.16,.37v3.75c0,.28-.23,.5-.5,.5h-4.04c-.28,0-.5-.23-.5-.5s.23-.5,.5-.5h3.53v-3.03l-1.06-1h.01Z"/>
      <path class="cls-15" d="M298.24,202.53c.2-.19,.52-.18,.71,.03s.18,.52-.03,.71l-1.06,1v3.03h3.53c.28,0,.5,.23,.5,.5s-.23,.5-.5,.5h-4.04c-.28,0-.5-.23-.5-.5v-3.75c0-.14,.05-.26,.16-.37l1.22-1.14h.01Z"/>
      <path class="cls-15" d="M305.16,204.09c.28,0,.5,.23,.5,.5s-.23,.5-.5,.5h-5.4c-.28,0-.5-.23-.5-.5s.23-.5,.5-.5h5.4Z"/>
      <polygon class="cls-6" points="296.13 200 290.5 200 290.5 202.89 296.13 202.89 296.13 200"/>
      <path class="cls-15" d="M295.64,200.51h-4.63v1.88h4.63v-1.88Zm-5.14-1h5.63c.28,0,.5,.23,.5,.5v2.89c0,.28-.23,.5-.5,.5h-5.63c-.28,0-.5-.23-.5-.5v-2.89c0-.28,.23-.5,.5-.5Z"/>
      <path class="cls-15" d="M295.79,203.26c-.2-.19-.21-.5-.03-.71s.5-.21,.71-.03l1.22,1.14c.1,.1,.16,.23,.16,.37v3.75c0,.28-.23,.5-.5,.5h-4.04c-.28,0-.5-.23-.5-.5s.23-.5,.5-.5h3.53v-3.03l-1.06-1h.01Z"/>
      <path class="cls-15" d="M290.16,202.53c.2-.19,.52-.18,.71,.03s.18,.52-.03,.71l-1.06,1v3.03h3.53c.28,0,.5,.23,.5,.5s-.23,.5-.5,.5h-4.04c-.28,0-.5-.23-.5-.5v-3.75c0-.14,.05-.26,.16-.37l1.22-1.14h.01Z"/>
      <path class="cls-15" d="M297.1,204.09c.28,0,.5,.23,.5,.5s-.23,.5-.5,.5h-5.4c-.28,0-.5-.23-.5-.5s.23-.5,.5-.5h5.4Z"/>
      <path class="cls-5" d="M252.17,163.29c-24.57,.21-36.84,.33-36.84,.33-.45-2.51,.44-5.08,2.36-6.78,1.92-1.69,4.57-2.27,7.02-1.51,.98-3,3.58-5.21,6.71-5.69s6.26,.83,8.11,3.41c3.1-.72,6.36,.03,8.83,2.02,2.47,2.01,3.89,5.03,3.82,8.21h-.01Z"/>
      <path class="cls-16" d="M252.17,162.71c.32,0,.58,.25,.58,.57s-.25,.58-.57,.58l-36.84,.33c-.29,0-.53-.2-.57-.48-.23-1.27-.13-2.57,.25-3.77s1.05-2.32,1.97-3.23c.96-.96,2.2-1.69,3.61-2.03,1.29-.32,2.73-.32,4.25,.1,.3,.09,.49,.4,.4,.71-.09,.3-.4,.49-.71,.4-1.34-.37-2.57-.37-3.68-.1-1.2,.29-2.25,.91-3.07,1.73s-1.36,1.74-1.69,2.76c-.28,.88-.38,1.82-.29,2.75l36.34-.32h.02Z"/>
      <path class="cls-14" d="M226.8,152.94c-.19,.25-.56,.3-.81,.11s-.3-.56-.11-.81c.85-1.14,1.93-2.02,3.17-2.61s2.61-.9,4.01-.85c1.41,.05,2.76,.44,3.95,1.11,1.07,.61,2.02,1.45,2.75,2.49,1.51-.33,3.07-.33,4.56,0,1.62,.35,3.14,1.07,4.47,2.15l.04,.04c1.3,1.06,2.31,2.4,2.99,3.89,.68,1.5,1.01,3.17,.93,4.86-.01,.32-.28,.57-.59,.56s-.57-.28-.56-.59c.06-1.51-.24-2.99-.85-4.34-.61-1.32-1.5-2.52-2.66-3.47l-.04-.03c-1.17-.95-2.55-1.6-3.99-1.91-1.43-.32-2.93-.29-4.38,.08-.24,.08-.52,0-.67-.24-.66-1.02-1.55-1.85-2.59-2.45-1.03-.58-2.21-.92-3.42-.97-1.22-.04-2.41,.21-3.48,.73-1.07,.52-2.02,1.29-2.74,2.26h.02Z"/>
    </g>
  </g>
</svg>